<?xml version="1.0" encoding="UTF-8"?>
<svg version="1.1" xmlns="http://www.w3.org/2000/svg" width="1920" height="1920">
<path d="M0 0 C633.6 0 1267.2 0 1920 0 C1920 633.6 1920 1267.2 1920 1920 C1286.4 1920 652.8 1920 0 1920 C0 1286.4 0 652.8 0 0 Z " fill="#13332E" transform="translate(0,0)"/>
<path d="M0 0 C31.02 0 62.04 0 94 0 C98.49963083 11.24907707 98.49963083 11.24907707 100.43505859 17.00219727 C100.6475377 17.63117259 100.8600168 18.26014791 101.07893467 18.9081831 C101.77139648 20.96004941 102.45992352 23.01321224 103.1484375 25.06640625 C103.64219678 26.53176635 104.13622675 27.99703526 104.63050842 29.46221924 C105.67448666 32.55840883 106.71681832 35.65514545 107.75778198 38.75234985 C109.3903662 43.6095685 111.02686077 48.46546336 112.66430664 53.32104492 C112.93550355 54.12525029 113.20670046 54.92945566 113.48611546 55.75803089 C114.03103379 57.37388618 114.57596736 58.98973634 115.12091637 60.60558128 C115.93134913 63.00896844 116.74144282 65.41246967 117.5514679 67.81599426 C121.48665685 79.49069981 125.44662827 91.1567004 129.4375 102.8125 C130.50922094 105.94397403 131.5808123 109.07549238 132.65234375 112.20703125 C133.04867004 113.36508018 133.04867004 113.36508018 133.45300293 114.54652405 C137.15154945 125.35882506 140.82376052 136.18009971 144.5 147 C149.65495558 162.17068363 154.81835259 177.33841206 160 192.5 C166.22722168 210.72175339 172.42753502 228.95260086 178.62409973 247.18479919 C179.16015083 248.762015 179.16015083 248.762015 179.70703125 250.37109375 C180.06460007 251.4231752 180.42216888 252.47525665 180.79057312 253.55921936 C186.19314897 269.45402426 191.6053917 285.34553956 197.01663208 301.23739624 C199.3672943 308.14108619 201.71702855 315.04509157 204.06640625 321.94921875 C210.14363565 339.80768618 216.22311942 357.66537337 222.31872559 375.51757812 C223.17678189 378.03110317 224.03423421 380.54483363 224.89160156 383.05859375 C227.52073921 390.76379767 230.15775079 398.46611631 232.81715393 406.16093445 C234.04508986 409.7146151 235.269876 413.269378 236.49453735 416.82418823 C237.07679977 418.51107618 237.66073664 420.19738718 238.24642944 421.88308716 C239.05116911 424.19932116 239.85037772 426.51739511 240.6484375 428.8359375 C240.8882988 429.52134109 241.1281601 430.20674469 241.37528992 430.91291809 C242.34689943 433.75088718 243 435.97524599 243 439 C213.3 439 183.6 439 153 439 C147.37556054 425.50134529 147.37556054 425.50134529 145.63500977 420.39746094 C145.23957977 419.24461105 144.84414978 418.09176117 144.43673706 416.90397644 C144.02577789 415.69300797 143.61481873 414.48203949 143.19140625 413.234375 C142.74412471 411.92628676 142.29645223 410.61833213 141.84841919 409.3105011 C140.9040516 406.55173993 139.96197323 403.79221315 139.02182007 401.03201294 C136.7987767 394.50607507 134.56324156 387.98441158 132.32896614 381.4623127 C131.58784748 379.29854512 130.84717757 377.13462431 130.10655212 374.97068787 C126.34539236 363.98535035 122.53833623 353.01672064 118.6875 342.0625 C117.59608333 338.95582424 116.50493852 335.84905314 115.4140625 332.7421875 C115.14337952 331.97138351 114.87269653 331.20057953 114.59381104 330.40641785 C110.88788776 319.84348008 107.22792123 309.26454258 103.5625 298.6875 C98.22456047 283.28596963 92.87417726 267.88892417 87.5 252.5 C82.12582252 237.11107521 76.7756787 221.71394783 71.4375 206.3125 C66.314953 191.53344609 61.17525973 176.76067907 56 162 C50.45820554 146.1939045 44.95938059 130.37316132 39.47412109 114.54736328 C34.80053968 101.06386054 30.11641468 87.58414977 25.41186523 74.11141968 C19.83915562 58.15217153 14.27472491 42.19004222 8.72607422 26.22241211 C7.953347 23.9994027 7.18007647 21.77658208 6.40625 19.55395508 C5.33315794 16.47137705 4.26202281 13.38812602 3.19140625 10.3046875 C2.86721207 9.37465912 2.54301788 8.44463074 2.20899963 7.48641968 C1.91645798 6.64253693 1.62391632 5.79865417 1.32250977 4.92919922 C1.06574966 4.1906369 0.80898956 3.45207458 0.54444885 2.69113159 C0 1 0 1 0 0 Z " fill="#FEFEFE" transform="translate(498,783)"/>
<path d="M0 0 C19.65076336 -0.02343557 39.29957317 0.01913677 58.94997978 0.15476799 C63.40390517 0.18545959 67.85784245 0.21414858 72.31178284 0.24256897 C73.91081333 0.25278721 75.50984383 0.26300584 77.10887432 0.27322483 C77.91604723 0.27838049 78.72322015 0.28353615 79.55485284 0.28884804 C82.89861321 0.31026275 86.24237217 0.33189351 89.58613116 0.35352319 C108.9415072 0.47866519 128.29689913 0.60074268 147.65234375 0.71484375 C148.65565334 0.7207583 149.65896292 0.72667285 150.69267583 0.73276663 C187.74951664 0.95009066 224.80650485 1.09983317 261.86372945 1.23062512 C266.96688026 1.24864582 272.07003019 1.26690051 277.17317963 1.28530693 C285.90435209 1.31679469 294.63552525 1.34808255 303.36669922 1.37915039 C304.08664519 1.38171274 304.80659116 1.38427508 305.54835367 1.38691507 C322.95995135 1.44881632 340.37155392 1.50767639 357.78318081 1.56076189 C369.55137954 1.59667332 381.31956315 1.63592911 393.0877406 1.67825109 C400.80163808 1.70579203 408.51553279 1.72916798 416.22945285 1.74934965 C420.94715625 1.76271484 425.66483799 1.78013576 430.3825233 1.79875672 C432.55736654 1.8065227 434.73221654 1.81260771 436.90706944 1.81688488 C439.86237376 1.82292629 442.8175949 1.83496195 445.77287292 1.84851074 C447.05615796 1.84895452 447.05615796 1.84895452 448.36536795 1.84940726 C452.68792463 1.87590279 456.74308392 2.13830343 461 3 C458.60372396 12.4254158 455.54928057 21.61139852 452.45703125 30.82421875 C451.92296914 32.42266678 451.38917552 34.02120453 450.8556366 35.61982727 C449.46259758 39.79137217 448.06595684 43.96170218 446.66851807 48.1317749 C445.23838908 52.40156392 443.81173114 56.67251231 442.38476562 60.94335938 C439.59320649 69.29670034 436.79783469 77.64875886 434 86 C417.03672541 86.8580432 400.086794 87.25130846 383.10437584 87.47240901 C379.50302326 87.51998045 375.90172403 87.57134013 372.30041504 87.62208557 C365.348929 87.71936151 358.39739547 87.81269351 351.44583511 87.90448874 C345.8234472 87.97881899 340.20108569 88.05493251 334.57873535 88.13204956 C301.37600908 88.58692883 268.17325036 89.01352415 234.96875 89.31640625 C233.74194267 89.32761883 232.51513535 89.33883141 231.25115204 89.35038376 C219.84826053 89.45375232 208.44534398 89.5511397 197.04229164 89.63499737 C176.20899147 89.78920549 155.39386473 90.05838047 134.56939507 90.69187737 C120.73157696 91.11163756 106.89201229 91.34162403 93.04934692 91.53242874 C90.82691456 91.56316502 88.60449778 91.5949011 86.38208008 91.62667847 C47.58970676 92.17350486 8.79520993 92.09931667 -30 92 C-28.7804411 86.05214114 -27.2516457 80.32508827 -25.31030273 74.57446289 C-25.04827057 73.78632202 -24.7862384 72.99818115 -24.51626587 72.18615723 C-23.65971283 69.61351977 -22.7967805 67.04307471 -21.93359375 64.47265625 C-21.33315042 62.67438771 -20.7330635 60.87600013 -20.13331604 59.07749939 C-18.88108871 55.32540112 -17.6259355 51.57429984 -16.3684082 47.82397461 C-14.75464659 43.0111054 -13.14617126 38.19649103 -11.5395956 33.38121891 C-10.30304429 29.67571352 -9.0647954 25.97077742 -7.82591438 22.26605034 C-7.23195528 20.48987605 -6.6382794 18.71360702 -6.04488945 16.93724251 C-5.2182663 14.46422337 -4.3896153 11.99189375 -3.56030273 9.51977539 C-3.31457016 8.78369553 -3.06883759 8.04761566 -2.81565857 7.28923035 C-1.11470535 2.22941071 -1.11470535 2.22941071 0 0 Z " fill="#FEFEFE" transform="translate(596,1366)"/>
<path d="M0 0 C6.5413082 19.38350333 12.96668291 38.80457346 19.23239136 58.27902222 C19.90998442 60.3821516 20.5900941 62.48447185 21.2727356 64.58596802 C22.2358994 67.55374824 23.18949934 70.52443703 24.140625 73.49609375 C24.43067917 74.38420746 24.72073334 75.27232117 25.01957703 76.18734741 C27.65660447 84.49756468 27.65660447 84.49756468 27 88 C25.58911133 89.59887695 25.58911133 89.59887695 23.58203125 90.98828125 C22.83308594 91.52130859 22.08414062 92.05433594 21.3125 92.60351562 C20.4875 93.16748047 19.6625 93.73144531 18.8125 94.3125 C17.05719167 95.55661793 15.30333653 96.80278816 13.55078125 98.05078125 C12.17720459 99.02072021 12.17720459 99.02072021 10.77587891 100.01025391 C6.27247802 103.23828532 1.89046664 106.62085973 -2.5 110 C-9.88473713 115.65568749 -17.33199195 121.21473658 -24.8359375 126.7109375 C-30.77671569 131.07277132 -36.64748697 135.5206034 -42.5 140 C-50.0056476 145.74371634 -57.56687643 151.40205903 -65.1875 156.9921875 C-70.14798198 160.63153609 -75.08478317 164.29976679 -80 168 C-85.69972739 172.29082202 -91.43500053 176.53023888 -97.1875 180.75 C-104.91563489 186.42318222 -112.55002954 192.21139146 -120.1628418 198.03808594 C-126.66539815 203.00622353 -133.23429756 207.87562263 -139.8359375 212.7109375 C-145.7767179 217.07277294 -151.64740917 221.52070271 -157.5 226 C-168.01139798 234.0413063 -178.65631162 241.89060474 -189.33398438 249.70898438 C-199.35616884 257.05188811 -209.29725718 264.48735999 -219.16357422 272.03857422 C-225.66581386 277.00664488 -232.23453424 281.87579599 -238.8359375 286.7109375 C-244.77671433 291.07277032 -250.6475326 295.52054548 -256.5 300 C-263.88268346 305.65067561 -271.32359573 311.21023936 -278.82495117 316.70214844 C-284.87779513 321.14481102 -290.85247959 325.68378637 -296.8125 330.25 C-303.53192603 335.39638121 -310.30790297 340.41241451 -317.23828125 345.26953125 C-320.36285637 347.4986222 -323.39091998 349.83963293 -326.41796875 352.19921875 C-327.36994141 352.93849609 -328.32191406 353.67777344 -329.30273438 354.43945312 C-331.20288025 355.92020322 -333.09632157 357.40960351 -334.98242188 358.90820312 C-335.84802734 359.58173828 -336.71363281 360.25527344 -337.60546875 360.94921875 C-338.38043701 361.56112061 -339.15540527 362.17302246 -339.95385742 362.8034668 C-340.62908447 363.19832275 -341.30431152 363.59317871 -342 364 C-342.99 363.67 -343.98 363.34 -345 363 C-345.99028015 360.9287262 -345.99028015 360.9287262 -346.8659668 358.15844727 C-347.20029221 357.12128067 -347.53461761 356.08411407 -347.8790741 355.01551819 C-348.23222183 353.87731125 -348.58536957 352.73910431 -348.94921875 351.56640625 C-349.51368462 349.79655617 -349.51368462 349.79655617 -350.08955383 347.99095154 C-351.09642305 344.82571994 -352.09253238 341.65749093 -353.08380127 338.48736572 C-354.06165672 335.36951846 -355.05411706 332.25633009 -356.04492188 329.14257812 C-357.60838597 324.22063078 -359.15652024 319.29424464 -360.69287109 314.36376953 C-362.24163621 309.39545781 -363.82604194 304.44049457 -365.43603516 299.49169922 C-366.19316888 297.12862399 -366.95017314 294.76550727 -367.70703125 292.40234375 C-368.06939377 291.31006973 -368.43175629 290.21779572 -368.80509949 289.09242249 C-369.12440933 288.08473312 -369.44371918 287.07704376 -369.77270508 286.03881836 C-370.05906326 285.15866562 -370.34542145 284.27851288 -370.64045715 283.37168884 C-371.07630919 280.49663395 -370.59533021 279.38914951 -369 277 C-367.03564453 275.2199707 -367.03564453 275.2199707 -364.6328125 273.42578125 C-363.75367188 272.76320313 -362.87453125 272.100625 -361.96875 271.41796875 C-361.0303125 270.72316406 -360.091875 270.02835938 -359.125 269.3125 C-358.16335938 268.590625 -357.20171875 267.86875 -356.2109375 267.125 C-353.47919952 265.07619652 -350.74055497 263.0369856 -348 261 C-346.89261797 260.17138911 -345.78571231 259.34214038 -344.6796875 258.51171875 C-342.87281925 257.1552506 -341.06418412 255.80113323 -339.25390625 254.44921875 C-335.70313084 251.7864255 -332.18142959 249.08570778 -328.65551758 246.39013672 C-320.92477517 240.4808025 -313.16596409 234.62042471 -305.3125 228.875 C-299.1274752 224.34879411 -293.03096165 219.72949513 -287 215 C-280.196778 209.66489638 -273.2912017 204.49359687 -266.31420898 199.38842773 C-259.44651556 194.3537958 -252.67103297 189.20443043 -245.90698242 184.03173828 C-239.96236087 179.48807153 -233.99205612 174.98089773 -228 170.5 C-220.06365748 164.56367559 -212.17088623 158.57218444 -204.29296875 152.55859375 C-198.96686315 148.49414435 -193.62196269 144.45808024 -188.25390625 140.44921875 C-184.70313084 137.7864255 -181.18142959 135.08570778 -177.65551758 132.39013672 C-169.92477517 126.4808025 -162.16596409 120.62042471 -154.3125 114.875 C-148.1274752 110.34879411 -142.03096165 105.72949513 -136 101 C-129.196778 95.66489638 -122.2912017 90.49359687 -115.31420898 85.38842773 C-108.44651556 80.3537958 -101.67103297 75.20443043 -94.90698242 70.03173828 C-88.96236087 65.48807153 -82.99205612 60.98089773 -77 56.5 C-69.06365748 50.56367559 -61.17088623 44.57218444 -53.29296875 38.55859375 C-47.97721658 34.50204525 -42.64287252 30.47359833 -37.28515625 26.47265625 C-33.58718539 23.69947914 -29.91832908 20.88818252 -26.24536133 18.08203125 C-2.57033385 0 -2.57033385 0 0 0 Z " fill="#FEFEFE" transform="translate(1020,512)"/>
<path d="M0 0 C6.09798123 3.98983741 12.02852773 8.15121978 17.875 12.5 C19.54943788 13.7396391 21.22391825 14.97922081 22.8984375 16.21875 C23.7450293 16.84652344 24.59162109 17.47429688 25.46386719 18.12109375 C29.46985691 21.08895059 33.4850962 24.04421956 37.5 27 C42.45310208 30.6471195 47.40366581 34.29756592 52.34765625 37.95703125 C53.22035156 38.60220703 54.09304688 39.24738281 54.9921875 39.91210938 C56.67410128 41.15565201 58.35512727 42.40039653 60.03515625 43.64648438 C60.78796875 44.20271484 61.54078125 44.75894531 62.31640625 45.33203125 C62.98099854 45.82421143 63.64559082 46.3163916 64.33032227 46.82348633 C66.00015955 48.06242083 66.00015955 48.06242083 68 49 C67.38683686 56.46236273 65.30657047 63.31482209 63.15234375 70.46484375 C62.74803028 71.82347723 62.34429425 73.18228267 61.94108582 74.54124451 C61.07092396 77.4696604 60.19683002 80.39686257 59.31964111 83.32318115 C57.91813574 87.99887951 56.52556297 92.67720919 55.13427734 97.35595703 C53.14301596 104.04962387 51.1480659 110.74218099 49.15087891 117.43408203 C44.57868527 132.75659224 40.03033668 148.08618237 35.48538876 163.41679287 C33.93669207 168.64023457 32.38566476 173.86297614 30.83263683 179.08513165 C29.61864919 183.1682752 28.40644472 187.25194613 27.1953125 191.3359375 C26.8477613 192.50773025 26.8477613 192.50773025 26.49318886 193.70319557 C23.65810664 203.27183367 20.89652834 212.85587755 18.2421875 222.4765625 C15.95619515 230.7602958 13.46715976 238.95043502 10.8192749 247.12503052 C8.16511835 255.36735897 5.69665083 263.6608641 3.2578125 271.96875 C3.04999901 272.67652588 2.84218552 273.38430176 2.62807465 274.11352539 C1.34015755 278.5029277 0.05585004 282.89338031 -1.22729492 287.28417969 C-2.93418944 293.1235218 -4.64498689 298.96172213 -6.35639191 304.79974365 C-6.78000538 306.24489414 -7.20348272 307.69008453 -7.62682343 309.13531494 C-10.99912401 320.64535941 -14.43514973 332.13514791 -17.89533997 343.61904907 C-19.96409936 350.49991333 -21.9888911 357.38998798 -23.94140625 364.3046875 C-27.6571626 377.44986678 -31.63301282 390.51805112 -35.57363892 403.59710693 C-37.89990879 411.31860514 -40.22040084 419.04183912 -42.5390625 426.765625 C-42.77076708 427.53742474 -43.00247166 428.30922447 -43.24119759 429.10441208 C-49.92473461 451.37426691 -56.47691653 473.68266225 -63 496 C-66.09042688 495.29222955 -68.09554471 494.43703127 -70.66015625 492.55078125 C-71.36132568 492.03974854 -72.06249512 491.52871582 -72.78491211 491.00219727 C-73.53651611 490.44459717 -74.28812012 489.88699707 -75.0625 489.3125 C-75.85470947 488.73234131 -76.64691895 488.15218262 -77.46313477 487.55444336 C-79.97992272 485.7089969 -82.49016312 483.85488527 -85 482 C-86.58039051 480.8380809 -88.16111319 479.67661345 -89.7421875 478.515625 C-95.32221828 474.41419788 -100.89154665 470.29833043 -106.45996094 466.18115234 C-116.57955983 458.70049195 -126.72902321 451.27178454 -137 444 C-136.44543352 438.5482081 -135.45527371 433.72384752 -133.74609375 428.48828125 C-133.29261199 427.0816055 -132.83932966 425.67486543 -132.38623047 424.26806641 C-132.15522644 423.55894104 -131.92422241 422.84981567 -131.68621826 422.11920166 C-130.60815665 418.78989655 -129.57289245 415.44751484 -128.53515625 412.10546875 C-128.12694846 410.7973699 -127.71849991 409.48934617 -127.30981445 408.18139648 C-127.1060318 407.52887909 -126.90224915 406.87636169 -126.69229126 406.20407104 C-126.38054459 405.20586838 -126.38054459 405.20586838 -126.0625 404.1875 C-125.84556488 403.49278595 -125.62862976 402.7980719 -125.40512085 402.08230591 C-122.88999832 394.02900503 -120.36546559 385.97889993 -117.8125 377.9375 C-115.72277539 371.34766906 -113.69387515 364.74066126 -111.6875 358.125 C-100.59891587 321.56981116 -100.59891587 321.56981116 -96.3125 309 C-94.3885093 303.33965876 -92.73577963 297.6299475 -91.125 291.875 C-89.14479981 284.80385735 -86.99464939 277.82517098 -84.625 270.875 C-81.93444011 262.96850404 -79.47319472 255.01475479 -77.125 247 C-72.12162486 229.92504796 -67.05004885 212.84485495 -61.3125 196 C-59.36742829 190.27802534 -57.69466518 184.50423672 -56.0625 178.6875 C-54.256892 172.25323023 -52.35367039 165.88457429 -50.1875 159.5625 C-47.27040242 151.02692866 -44.68611083 142.40132127 -42.11273193 133.75671387 C-36.64793888 115.40456436 -30.95223553 97.12540628 -25.16064453 78.8737793 C-22.99178687 72.01813486 -20.9042623 65.13850464 -18.81811523 58.25732422 C-15.28322458 46.6117324 -11.67232369 34.98983652 -8.05029297 23.37109375 C-7.3761829 21.20742295 -6.70322977 19.04339116 -6.03173828 16.87890625 C-5.19082162 14.16832577 -4.3460924 11.45896851 -3.5 8.75 C-3.25693115 7.96399414 -3.0138623 7.17798828 -2.76342773 6.36816406 C-1.11463805 1.11463805 -1.11463805 1.11463805 0 0 Z " fill="#FEFEFE" transform="translate(1241,949)"/>
<path d="M0 0 C4.03696741 1.81002569 7.56979961 4.36003755 11.1875 6.875 C11.8894751 7.3604126 12.5914502 7.8458252 13.31469727 8.34594727 C20.52902099 13.3451575 27.69711741 18.40981149 34.85888672 23.48388672 C38.40297296 25.99343923 41.9517061 28.49640218 45.5 31 C46.91668922 31.99996804 48.33335588 32.99996805 49.75 34 C50.45125 34.495 51.1525 34.99 51.875 35.5 C228.25 160 228.25 160 230.37426758 161.49951172 C231.79333958 162.50119043 233.21244775 163.5028179 234.6315918 164.50439453 C238.13675274 166.97829495 241.64131515 169.45303366 245.14453125 171.9296875 C252.75009937 177.30505144 260.36776805 182.66255014 268 188 C276.32401819 193.82123683 284.62918349 199.668542 292.92333984 205.53222656 C296.44767516 208.02320986 299.97394701 210.51144903 303.5 213 C304.91667568 213.99998722 306.33334236 214.99998722 307.75 216 C308.45125 216.495 309.1525 216.99 309.875 217.5 C323.33333333 227 336.79166667 236.5 350.25 246 C350.95261963 246.4959668 351.65523926 246.99193359 352.37915039 247.50292969 C358.33219401 251.70507812 364.28523763 255.90722656 370.23828125 260.109375 C371.00527344 260.65078125 371.77226563 261.1921875 372.5625 261.75 C373.30757812 262.2759375 374.05265625 262.801875 374.8203125 263.34375 C375.49964844 263.82328125 376.17898438 264.3028125 376.87890625 264.796875 C377.90886719 265.52390625 378.93882812 266.2509375 380 267 C376.52839813 270.78315588 372.57446881 273.53826513 368.375 276.4375 C366.83923158 277.50954022 365.30409561 278.58248695 363.76953125 279.65625 C362.9801416 280.20796875 362.19075195 280.7596875 361.37744141 281.328125 C357.58141076 283.99758668 353.82088986 286.71540965 350.0625 289.4375 C349.32306152 289.9725415 348.58362305 290.50758301 347.82177734 291.05883789 C345.54734986 292.70520037 343.27363498 294.35254329 341 296 C339.40506551 297.15511031 337.81001252 298.31005701 336.21484375 299.46484375 C335.43061035 300.03267578 334.64637695 300.60050781 333.83837891 301.18554688 C331.56891197 302.82521186 329.29437913 304.45765683 327.01953125 306.08984375 C324.58980341 307.83654747 322.18945768 309.60844223 319.82421875 311.44140625 C318.95410156 312.10011719 318.08398438 312.75882813 317.1875 313.4375 C316.47980469 313.99308594 315.77210938 314.54867188 315.04296875 315.12109375 C313 316 313 316 310.64868164 315.23486328 C308.08813243 314.04108893 305.89840779 312.72726762 303.578125 311.12109375 C302.73080811 310.53859863 301.88349121 309.95610352 301.01049805 309.35595703 C300.09953369 308.72286621 299.18856934 308.08977539 298.25 307.4375 C296.26192261 306.06871428 294.27363334 304.70023625 292.28515625 303.33203125 C291.25148926 302.61869629 290.21782227 301.90536133 289.15283203 301.17041016 C284.01329697 297.63235326 278.84979474 294.12972558 273.6875 290.625 C271.57674033 289.19022565 269.46606381 287.75532898 267.35546875 286.3203125 C265.78031494 285.24958496 265.78031494 285.24958496 264.17333984 284.15722656 C258.94849968 280.60539646 253.72428591 277.05264527 248.5 273.5 C247.46681641 272.79746094 246.43363281 272.09492187 245.36914062 271.37109375 C240.19762644 267.85459315 235.02632588 264.33777921 229.85546875 260.8203125 C218.90798504 253.37380074 207.95670635 245.93293203 197 238.5 C185.01978611 230.37272956 173.04653754 222.23526205 161.07666016 214.09277344 C155.88484595 210.56125214 150.69238775 207.03067794 145.5 203.5 C143.41666364 202.08333778 141.33333031 200.66667112 139.25 199.25 C138.21875 198.54875 137.1875 197.8475 136.125 197.125 C101.75 173.75 101.75 173.75 98.62573242 171.62548828 C96.53996979 170.20717621 94.45419503 168.78888197 92.3684082 167.37060547 C87.19714414 163.85425884 82.02608328 160.33761418 76.85546875 156.8203125 C65.90798504 149.37380074 54.95670635 141.93293203 44 134.5 C32.01978611 126.37272956 20.04653754 118.23526205 8.07666016 110.09277344 C2.88484595 106.56125214 -2.30761225 103.03067794 -7.5 99.5 C-9.58333636 98.08333778 -11.66666969 96.66667112 -13.75 95.25 C-15.296875 94.198125 -15.296875 94.198125 -16.875 93.125 C-20 91 -23.125 88.875 -26.25 86.75 C-27.28294189 86.04770264 -28.31588379 85.34540527 -29.38012695 84.62182617 C-31.44675867 83.2163096 -33.51300734 81.81022964 -35.57885742 80.40356445 C-40.45416217 77.08490486 -45.33314885 73.77209299 -50.22598267 70.4793396 C-52.53416889 68.92547984 -54.84016342 67.36838459 -57.14599609 65.81103516 C-58.77228666 64.71461131 -60.40173081 63.62286965 -62.03125 62.53125 C-63.01738281 61.86480469 -64.00351563 61.19835937 -65.01953125 60.51171875 C-65.88682861 59.92865967 -66.75412598 59.34560059 -67.64770508 58.74487305 C-69.99990091 57.0000735 -71.98716494 55.12225041 -74 53 C-72.8984375 52.20442708 -71.796875 51.40885417 -70.6953125 50.61328125 C-69.97569336 50.09354736 -69.25607422 49.57381348 -68.51464844 49.03833008 C-66.90075037 47.87275535 -65.2868172 46.70722921 -63.67285156 45.54174805 C-59.5441165 42.5601944 -55.41586104 39.57798358 -51.2890625 36.59375 C-43.98872841 31.31573187 -36.68231149 26.04718026 -29.34472656 20.82104492 C-26.00182591 18.43760896 -22.66927848 16.04044104 -19.34375 13.6328125 C-18.13912109 12.76076172 -18.13912109 12.76076172 -16.91015625 11.87109375 C-15.34431983 10.73668714 -13.77917564 9.60132419 -12.21484375 8.46484375 C-8.1969186 5.55382463 -4.15054462 2.71886942 0 0 Z " fill="#FEFEFE" transform="translate(1142,594)"/>
<path d="M0 0 C4.07110541 1.96729399 7.75478736 4.41811569 11.5 6.9375 C12.27335693 7.45546143 13.04671387 7.97342285 13.84350586 8.50708008 C25.34728381 16.22626731 36.7988702 24.02330354 48.25476074 31.81329346 C50.99512728 33.67665453 53.73588465 35.5394406 56.4765625 37.40234375 C63.67319061 42.29476856 70.86834071 47.18936534 78.06347656 52.08398438 C90.03775661 60.22939027 102.01541577 68.36976476 114 76.5 C128.02868523 86.01693516 142.04702358 95.54904314 156.06347656 105.08398438 C168.03775661 113.22939027 180.01541577 121.36976476 192 129.5 C206.02868523 139.01693516 220.04702358 148.54904314 234.06347656 158.08398438 C246.03775661 166.22939027 258.01541577 174.36976476 270 182.5 C284.02868523 192.01693516 298.04702358 201.54904314 312.06347656 211.08398438 C324.62116341 219.62624797 337.18311193 228.16216957 349.7517395 236.68832397 C362.17452543 245.11570448 374.5885395 253.55594963 387 262 C383.12846254 266.13363381 378.97250095 269.30010763 374.3125 272.5 C372.78582443 273.56289217 371.25980389 274.62672567 369.734375 275.69140625 C368.95126953 276.23684082 368.16816406 276.78227539 367.36132812 277.34423828 C363.56774775 280.00429433 359.81445649 282.71919129 356.0625 285.4375 C355.31863037 285.97552246 354.57476074 286.51354492 353.80834961 287.06787109 C350.010937 289.81556246 346.21738937 292.56852491 342.42578125 295.32421875 C332.71883991 302.36966308 322.91920084 309.25656509 313 316 C307.79129353 313.13182916 302.95392842 309.96413269 298.125 306.5 C296.61724788 305.42699849 295.10943363 304.35408427 293.6015625 303.28125 C292.8374707 302.73597656 292.07337891 302.19070313 291.28613281 301.62890625 C287.69957484 299.07342625 284.09946072 296.53725627 280.5 294 C279.08326108 293.00010237 277.66659458 292.00010212 276.25 291 C275.54875 290.505 274.8475 290.01 274.125 289.5 C204 240 133.875 190.5 -21.25 81 C-21.95141113 80.50491943 -22.65282227 80.00983887 -23.37548828 79.49975586 C-24.79065369 78.50074861 -26.20569298 77.50156269 -27.62060547 76.50219727 C-31.18422327 73.98552034 -34.75004986 71.47208688 -38.3203125 68.96484375 C-47.63040053 62.420743 -56.84989803 55.76601427 -66 49 C-61.92411974 44.63356193 -57.42980267 41.25622979 -52.5625 37.8125 C-51.36270508 36.95495117 -51.36270508 36.95495117 -50.13867188 36.08007812 C-47.76207903 34.38251181 -45.38135823 32.69087191 -43 31 C-41.21638191 29.72767667 -39.43382056 28.45388581 -37.65136719 27.17993164 C-36.54694571 26.39080258 -35.44212522 25.60223168 -34.33691406 24.81420898 C-22.84018682 16.6142888 -11.41062568 8.31920066 0 0 Z " fill="#FEFEFE" transform="translate(1051,659)"/>
<path d="M0 0 C3.23031416 0.6124988 5.26136227 1.69844341 7.87890625 3.66796875 C8.99845703 4.50231445 8.99845703 4.50231445 10.140625 5.35351562 C11.33945313 6.26133789 11.33945313 6.26133789 12.5625 7.1875 C14.28242789 8.47282245 16.00248349 9.75797403 17.72265625 11.04296875 C18.60066895 11.70216309 19.47868164 12.36135742 20.38330078 13.04052734 C24.40420702 16.05151759 28.4524761 19.02494749 32.5 22 C34.07435794 23.15996735 35.64857606 24.32012451 37.22265625 25.48046875 C40.47943847 27.88030889 43.73739649 30.27854221 46.99609375 32.67578125 C47.82367187 33.28486328 48.65125 33.89394531 49.50390625 34.52148438 C51.0543628 35.66255071 52.60511259 36.80321876 54.15625 37.94335938 C60.46741599 42.58923559 66.7356437 47.29128886 73 52 C65.51292308 77.10497861 57.795908 102.13420961 49.9375 127.125 C42.82392877 149.74906172 35.77213513 172.39059292 28.8125 195.0625 C28.39300304 196.42884559 27.97349823 197.79518877 27.5539856 199.16152954 C27.34639838 199.8376444 27.13881117 200.51375925 26.92493343 201.21036243 C25.88622589 204.59338884 24.84744517 207.97639277 23.80859375 211.359375 C23.50321151 212.35394746 23.50321151 212.35394746 23.19165993 213.36861229 C18.94676409 227.19173194 14.66608608 241.00365447 10.375 254.8125 C8.89310379 259.58199231 7.41132011 264.35151955 5.9296875 269.12109375 C5.35280434 270.97815193 5.35280434 270.97815193 4.76426697 272.87272644 C-0.66993753 290.36952236 -6.08375776 307.87263758 -11.5 325.375 C-12.05107417 327.1557115 -12.60215042 328.93642236 -13.15322876 330.71713257 C-15.38918952 337.94228012 -17.62508799 345.16744694 -19.8608551 352.39265442 C-23.90276277 365.45465369 -27.94530278 378.51645713 -31.98828125 391.578125 C-32.27594738 392.50748997 -32.56361351 393.43685493 -32.8599968 394.39438248 C-34.29142153 399.01888542 -35.72285646 403.64338521 -37.15429688 408.2678833 C-39.50612982 415.86587028 -41.85788234 423.46388216 -44.20963669 431.06189346 C-45.44265133 435.04549519 -46.67567164 439.02909517 -47.90869141 443.01269531 C-48.40936282 444.63024901 -48.91003421 446.24780273 -49.41070557 447.86535645 C-54.27380371 463.5769043 -59.13690186 479.28845215 -64 495 C-71.67817359 490.64655242 -71.67817359 490.64655242 -75.171875 488.0390625 C-76.27692383 487.21921875 -76.27692383 487.21921875 -77.40429688 486.3828125 C-78.17837891 485.80273438 -78.95246094 485.22265625 -79.75 484.625 C-81.44263339 483.36708666 -83.13534389 482.10927705 -84.828125 480.8515625 C-85.68728516 480.2112207 -86.54644531 479.57087891 -87.43164062 478.91113281 C-91.44349209 475.92588821 -95.47232238 472.96383399 -99.5 470 C-101.06380845 468.84636279 -102.62761049 467.69271691 -104.19140625 466.5390625 C-107.54657763 464.06610261 -110.90974977 461.60445116 -114.27734375 459.1484375 C-115.14101562 458.51679687 -116.0046875 457.88515625 -116.89453125 457.234375 C-118.54741364 456.02581584 -120.20225795 454.81993374 -121.859375 453.6171875 C-123.92689062 452.10315188 -125.96878592 450.56224058 -128 449 C-128.86367187 448.33871094 -129.72734375 447.67742187 -130.6171875 446.99609375 C-132 445 -132 445 -131.76171875 442.13671875 C-131.40722656 440.99847656 -131.05273438 439.86023437 -130.6875 438.6875 C-130.49236816 438.03563721 -130.29723633 437.38377441 -130.09619141 436.7121582 C-129.41897523 434.46761856 -128.70881575 432.23474501 -128 430 C-127.50130626 428.36537428 -127.00531443 426.72992236 -126.51171875 425.09375 C-125.36767989 421.30819338 -124.21170643 417.52650367 -123.05078125 413.74609375 C-120.66263197 405.93129644 -118.36239311 398.09111009 -116.0625 390.25 C-115.63235068 388.7846602 -115.2021749 387.31932817 -114.77197266 385.85400391 C-113.92148306 382.95661017 -113.07125545 380.05913971 -112.22119141 377.16162109 C-103.56718154 347.66734256 -103.56718154 347.66734256 -99.9375 336.375 C-97.30815777 328.18375866 -94.97929847 319.92002911 -92.67993164 311.63085938 C-84.59405932 282.48343742 -84.59405932 282.48343742 -80.5 270.5625 C-77.57708427 262.00389707 -75.24086627 253.28762049 -72.828125 244.57421875 C-68.90473352 230.41598431 -64.85741585 216.31903928 -60.109375 202.4140625 C-58.57118127 197.68032546 -57.34037465 192.88270798 -56.08984375 188.06640625 C-53.34311337 177.64946353 -50.0871414 167.35668576 -46.79638672 157.10083008 C-43.84719792 147.90497293 -41.18624099 138.6489347 -38.60791016 129.3425293 C-35.23782311 117.19776168 -31.65261269 105.12534472 -27.80322266 93.1237793 C-24.8837674 84.01419363 -22.23568684 74.84856899 -19.68041992 65.63037109 C-15.06936106 49.0001148 -10.21712568 32.4500901 -5 16 C-4.05979836 13.00084243 -3.12363879 10.0004278 -2.1875 7 C-1.76439372 5.64581121 -1.34122364 4.29164235 -0.91796875 2.9375 C-0.61503906 1.968125 -0.31210938 0.99875 0 0 Z " fill="#FEFEFE" transform="translate(1325,1012)"/>
<path d="M0 0 C0.28085449 0.8979126 0.56170898 1.7958252 0.85107422 2.72094727 C6.01010229 19.20740653 11.19142039 35.68599232 16.5 52.125 C16.70687439 52.7659964 16.91374878 53.4069928 17.12689209 54.06741333 C17.71929496 55.90194456 18.31275547 57.73613415 18.90625 59.5703125 C19.26460937 60.68051758 19.62296875 61.79072266 19.9921875 62.93457031 C20.88666503 65.65527279 21.82941499 68.35374447 22.78125 71.0546875 C24.75406873 77.1734585 24.75406873 77.1734585 24 80 C21.80468787 82.02763624 19.75611652 83.63345238 17.3125 85.3125 C15.84395049 86.36565309 14.37656252 87.42042721 12.91015625 88.4765625 C11.72317139 89.32202637 11.72317139 89.32202637 10.51220703 90.18457031 C6.02317227 93.4285414 1.64416686 96.81679963 -2.75 100.1875 C-10.13951122 105.828806 -17.5506277 111.43793516 -25 117 C-33.80678743 123.5786551 -42.57925466 130.19894044 -51.3125 136.875 C-58.0780393 142.04485266 -64.88271119 147.15360448 -71.75 152.1875 C-79.82315004 158.10664615 -87.79022982 164.15254129 -95.7265625 170.25341797 C-107.44416808 179.25553893 -119.2045583 188.18862332 -131.12109375 196.92602539 C-138.39863133 202.27103656 -145.56809948 207.75051104 -152.7265625 213.25341797 C-164.53711246 222.326944 -176.39252936 231.32854516 -188.40234375 240.13696289 C-194.37574848 244.52352513 -200.25928586 249.0104142 -206.11914062 253.54785156 C-217.68502356 262.47748184 -229.33641069 271.28536478 -241.12011719 279.92529297 C-248.39796067 285.27057601 -255.56777613 290.75026248 -262.7265625 296.25341797 C-274.44416808 305.25553893 -286.2045583 314.18862332 -298.12109375 322.92602539 C-303.2465074 326.69040213 -308.32842245 330.50561962 -313.375 334.375 C-314.04909912 334.89118896 -314.72319824 335.40737793 -315.41772461 335.93920898 C-319.4852253 339.05849887 -323.53969105 342.19415947 -327.58984375 345.3359375 C-329.49732376 346.80738511 -331.40487492 348.27874047 -333.3125 349.75 C-334.21468262 350.45431152 -335.11686523 351.15862305 -336.04638672 351.88427734 C-337.31699951 352.86195068 -337.31699951 352.86195068 -338.61328125 353.859375 C-339.36391846 354.44170898 -340.11455566 355.02404297 -340.88793945 355.62402344 C-342.99425312 356.99625599 -344.5768297 357.46295606 -347 358 C-347.20996109 357.33475311 -347.41992218 356.66950623 -347.63624573 355.98410034 C-349.64992323 349.60406546 -351.6638526 343.22411013 -353.6780405 336.84423637 C-354.91390818 332.92963202 -356.14960943 329.01497522 -357.38503456 325.10023117 C-357.98552522 323.19785614 -358.58643604 321.29561376 -359.18734741 319.39337158 C-359.98025036 316.88057289 -360.7712937 314.36718664 -361.56045532 311.85321045 C-363.39918969 306.00622083 -365.26485323 300.1727316 -367.22216797 294.36425781 C-367.72900368 292.84035934 -367.72900368 292.84035934 -368.24607849 291.28567505 C-368.8740104 289.40410466 -369.51366257 287.52638913 -370.16712952 285.65353394 C-370.44060715 284.82830231 -370.71408478 284.00307068 -370.99584961 283.15283203 C-371.23951767 282.4422464 -371.48318573 281.73166077 -371.73423767 280.99954224 C-372.08215892 278.38185281 -371.40266184 277.19717392 -370 275 C-368.13085938 273.28344727 -368.13085938 273.28344727 -365.84375 271.56640625 C-364.99554687 270.92445313 -364.14734375 270.2825 -363.2734375 269.62109375 C-361.90058594 268.60208984 -361.90058594 268.60208984 -360.5 267.5625 C-359.55382812 266.8509375 -358.60765625 266.139375 -357.6328125 265.40625 C-351.08444818 260.49936575 -344.46536479 255.69431157 -337.81030273 250.93359375 C-331.06608908 246.09288712 -324.4752551 241.0613269 -317.88671875 236.01171875 C-312.1365304 231.6105482 -306.34246346 227.27779075 -300.5 223 C-293.77494119 218.07447611 -287.11946776 213.06651345 -280.5 208 C-273.11731654 202.34932439 -265.67640427 196.78976064 -258.17504883 191.29785156 C-252.12220487 186.85518898 -246.14752041 182.31621363 -240.1875 177.75 C-233.99122915 173.00430122 -227.75935893 168.34541901 -221.37451172 163.85742188 C-215.15600595 159.45680048 -209.13633213 154.79652275 -203.08984375 150.1640625 C-197.27147162 145.71275775 -191.41092227 141.3275176 -185.5 137 C-178.77491782 132.07450846 -172.11946708 127.06651293 -165.5 122 C-158.11731654 116.34932439 -150.67640427 110.78976064 -143.17504883 105.29785156 C-137.12220487 100.85518898 -131.14752041 96.31621363 -125.1875 91.75 C-118.99122915 87.00430122 -112.75935893 82.34541901 -106.37451172 77.85742188 C-100.15600595 73.45680048 -94.13633213 68.79652275 -88.08984375 64.1640625 C-82.27147162 59.71275775 -76.41092227 55.3275176 -70.5 51 C-63.7749137 46.07450544 -57.11960653 41.06633497 -50.5 36 C-42.31365176 29.73737596 -34.0622092 23.57344508 -25.74609375 17.484375 C-22.37051897 15.01268133 -19.01144262 12.52014938 -15.66015625 10.015625 C-14.78633301 9.36480957 -13.91250977 8.71399414 -13.01220703 8.04345703 C-11.32685777 6.78767527 -9.6441294 5.52836651 -7.96435547 4.26513672 C-7.2117041 3.70584473 -6.45905273 3.14655273 -5.68359375 2.5703125 C-5.01900146 2.07289551 -4.35440918 1.57547852 -3.66967773 1.06298828 C-2 0 -2 0 0 0 Z " fill="#FEFEFE" transform="translate(989,414)"/>
<path d="M0 0 C-7.06735221 21.90106204 -14.21900655 43.77007534 -21.54150391 65.58740234 C-21.83202133 66.45472488 -22.12253876 67.32204742 -22.42185974 68.21565247 C-22.96614469 69.840359 -23.51168975 71.46464415 -24.05873108 73.08842468 C-25.15826349 76.37219029 -26.19135321 79.63318184 -27 83 C-112.06375435 83.11043142 -197.12507266 83.09715534 -282.1875 82.5625 C-283.49670489 82.55429025 -283.49670489 82.55429025 -284.83235836 82.54591465 C-311.22168863 82.38010173 -337.61087462 82.19556838 -364 82 C-365.21874848 81.99097688 -365.21874848 81.99097688 -366.46211815 81.98177147 C-407.30828417 81.6791566 -448.15424166 81.35357937 -489 81 C-487.31015507 75.31429266 -485.59054266 69.64399829 -483.74755859 64.00561523 C-483.54390182 63.38153275 -483.34024506 62.75745026 -483.13041687 62.11445618 C-482.47108763 60.09539751 -481.80991406 58.07694985 -481.1484375 56.05859375 C-480.68427415 54.64039298 -480.22013269 53.22218505 -479.75601196 51.80397034 C-478.79041358 48.85460568 -477.82374157 45.90559532 -476.85644531 42.95678711 C-475.61495077 39.17139262 -474.37745372 35.38470375 -473.14087486 31.59770107 C-472.18727462 28.6795031 -471.23096644 25.76219796 -470.27388382 22.84514046 C-469.81596901 21.44796083 -469.3590539 20.05045315 -468.90314865 18.6526165 C-468.26950232 16.7107559 -467.63168538 14.77025768 -466.99365234 12.82983398 C-466.63185883 11.72526352 -466.27006531 10.62069305 -465.89730835 9.48265076 C-465 7 -465 7 -464 6 C-460.82215014 5.85649045 -457.66440814 5.7786907 -454.48460388 5.74134827 C-453.47070507 5.72557289 -452.45680625 5.70979751 -451.41218323 5.69354409 C-447.97853574 5.64133863 -444.54483029 5.5962284 -441.11108398 5.55102539 C-438.65230259 5.5151015 -436.19352747 5.47874573 -433.73475838 5.4419899 C-428.39697103 5.36318859 -423.05915319 5.28745256 -417.72128487 5.21441078 C-409.89271924 5.10727722 -402.06424059 4.99460896 -394.23577102 4.8806965 C-380.51856127 4.68126901 -366.80127876 4.48729002 -353.08395793 4.29567184 C-341.22726932 4.1300208 -329.3706101 3.96242839 -317.51397705 3.79284668 C-316.73373292 3.7816888 -315.95348879 3.77053092 -315.14960089 3.75903492 C-311.21122812 3.70270676 -307.27285579 3.64634848 -303.33448362 3.58997798 C-277.76298316 3.22402458 -252.19143072 2.86187621 -226.61983687 2.50251272 C-201.22537045 2.14563216 -175.83100879 1.7822412 -150.43676668 1.40969676 C-139.62299845 1.25111765 -128.80919554 1.09494109 -117.99538326 0.93939686 C-116.50319857 0.91792486 -115.01101393 0.89644912 -113.51882935 0.87496948 C-112.7942144 0.86453942 -112.06959945 0.85410935 -111.32302648 0.84336323 C-106.38605891 0.77215966 -101.44911402 0.69950649 -96.51217651 0.62625122 C-64.33898768 0.14969886 -32.1768452 -0.1127683 0 0 Z " fill="#FDFDFD" transform="translate(1091,1267)"/>
<path d="M0 0 C26.73 0 53.46 0 81 0 C84.114375 9.075 87.22875 18.15 90.4375 27.5 C97.17991244 47.11638987 103.97866298 66.70912221 110.9375 86.25 C116.11877963 100.8010369 121.21926443 115.37478377 126.1875 130 C130.56855109 142.89525634 134.99062053 155.77400937 139.5 168.625 C139.7771283 169.41488312 140.05425659 170.20476624 140.33978271 171.01858521 C141.53016405 174.41098932 142.72078368 177.80330967 143.91174316 181.19551086 C148.31989727 193.75455879 152.7078089 206.32069315 157.09626389 218.88663483 C157.57381414 220.25404867 158.05138627 221.62145488 158.52898026 222.98885345 C165.71557919 243.56480456 172.87711701 264.14931621 180.0144043 284.74243164 C186.36968321 303.07782011 192.76005615 321.40087228 199.15722656 339.72167969 C201.96131974 347.75278421 204.76254694 355.78488845 207.5640564 363.81689453 C208.49150487 366.47564668 209.41917899 369.13432 210.34692383 371.79296875 C213.28276338 380.20671377 216.21687798 388.6210508 219.14590454 397.03717041 C220.53321512 401.02310988 221.92135959 405.00875872 223.30957031 408.99438477 C223.97258603 410.8986989 224.63519085 412.80315615 225.29736328 414.70776367 C226.21413681 417.34459901 227.13231097 419.98094279 228.05078125 422.6171875 C228.3209053 423.39532806 228.59102936 424.17346863 228.86933899 424.97518921 C229.912088 427.96463192 230.96394281 430.9136441 232.18432617 433.83642578 C233 436 233 436 233 439 C204.95 439 176.9 439 148 439 C146.35 433.39 144.7 427.78 143 422 C141.49783751 417.39364801 139.97703162 412.80251291 138.41015625 408.21875 C137.98921188 406.97820862 137.56826752 405.73766724 137.13456726 404.45953369 C136.01274851 401.15381425 134.88672382 397.84954308 133.75975037 394.545578 C132.57528665 391.07062405 131.39485034 387.59430208 130.21386719 384.11816406 C127.48102518 376.07703096 124.74129585 368.03825437 122 360 C121.30908203 357.97330729 120.61816406 355.94661458 119.92724609 353.91992188 C117.65673615 347.2614522 115.38424513 340.60366281 113.10766602 333.94726562 C108.55542708 320.63705662 104.025679 307.3192611 99.5 294 C94.34497692 278.82933922 89.18164746 263.66158807 84 248.5 C77.77277832 230.27824661 71.57246498 212.04739914 65.37590027 193.81520081 C65.01853287 192.7637236 64.66116547 191.7122464 64.29296875 190.62890625 C63.93539993 189.5768248 63.57783112 188.52474335 63.20942688 187.44078064 C59.45563335 176.39682355 55.69703545 165.35450354 51.9375 154.3125 C51.60945374 153.34898621 51.28140747 152.38547241 50.94342041 151.39276123 C49.29030029 146.53737453 47.63711241 141.68201091 45.98388672 136.82666016 C43.32264883 129.01077969 40.66192886 121.19472292 38.0012207 113.37866211 C36.67040858 109.46929249 35.33951248 105.55995147 34.00854492 101.65063477 C30.97061778 92.72747712 27.93312249 83.80417347 24.89758301 74.88020325 C23.5209585 70.83326305 22.14403703 66.78642392 20.76708984 62.73959351 C20.09344817 60.75951793 19.41994373 58.77939566 18.74658203 56.79922485 C15.29175919 46.63984925 11.82789869 36.48383297 8.328125 26.33984375 C8.04209412 25.50983856 7.75606323 24.67983337 7.46136475 23.82467651 C6.12870603 19.95765109 4.79333561 16.09161503 3.45214844 12.22753906 C2.98880142 10.88481078 2.52557727 9.54204009 2.0625 8.19921875 C1.46115234 6.46418091 1.46115234 6.46418091 0.84765625 4.6940918 C0 2 0 2 0 0 Z " fill="#FEFEFE" transform="translate(398,783)"/>
<path d="M0 0 C1.43900982 2.87801964 0.51084961 4.38070387 -0.37109375 7.44921875 C-0.69416504 8.59197266 -1.01723633 9.73472656 -1.35009766 10.91210938 C-1.88836182 12.78092773 -1.88836182 12.78092773 -2.4375 14.6875 C-3.18815409 17.33596332 -3.93253396 19.98616835 -4.67578125 22.63671875 C-4.86851624 23.3223288 -5.06125122 24.00793884 -5.25982666 24.71432495 C-7.33005045 32.11353793 -9.23059125 39.55424111 -11.125 47 C-13.28036835 55.45156476 -15.48416714 63.87915322 -17.9375 72.25 C-20.79384189 82.00782144 -23.33942313 91.84257728 -25.875 101.6875 C-26.0803537 102.48168335 -26.2857074 103.2758667 -26.49728394 104.09411621 C-27.08181303 106.35758563 -27.66270724 108.62195212 -28.2421875 110.88671875 C-28.41999252 111.57527451 -28.59779755 112.26383026 -28.7809906 112.97325134 C-29.69210873 116.4429671 -29.69210873 116.4429671 -30 120 C-28.79988281 120.29132813 -27.59976563 120.58265625 -26.36328125 120.8828125 C-16.45913181 123.31036906 -6.62962124 125.91270519 3.16357422 128.75488281 C12.06728322 131.33126099 21.02604474 133.68215555 30 136 C29.34 137.32 28.68 138.64 28 140 C27.34 140 26.68 140 26 140 C25.7313916 140.59385498 25.4627832 141.18770996 25.18603516 141.79956055 C23.99467768 144.00987445 22.79788102 145.44647183 21.0234375 147.20703125 C20.43433594 147.79419922 19.84523438 148.38136719 19.23828125 148.98632812 C18.62339844 149.58896484 18.00851562 150.19160156 17.375 150.8125 C16.48748047 151.69905273 16.48748047 151.69905273 15.58203125 152.60351562 C12.70299041 155.45457443 9.78597404 158.20239109 6.68408203 160.80932617 C0.62322604 166.09456821 -4.9733297 171.86328737 -10.63905334 177.56388855 C-12.75658088 179.69431126 -14.8773315 181.82147922 -16.99890137 183.94787598 C-21.50209648 188.46243603 -26.00134263 192.98091876 -30.5 197.5 C-35.71769801 202.74138632 -40.93704956 207.98110377 -46.16065979 213.21659851 C-48.23870342 215.30107178 -50.31368535 217.38855921 -52.3885498 219.47619629 C-57.8822332 224.9909904 -63.34155726 230.46663632 -69.28039551 235.50747681 C-72.45435715 238.26230293 -75.38582185 241.26333857 -78.34375 244.24609375 C-79.32559265 245.23005882 -79.32559265 245.23005882 -80.32727051 246.23390198 C-82.38723823 248.29940145 -84.44367366 250.36837595 -86.5 252.4375 C-87.9086205 253.85114434 -89.31747267 255.26455786 -90.7265625 256.67773438 C-94.15372133 260.11583149 -97.57772019 263.55704656 -101 267 C-102.2935947 264.41281059 -101.78749669 263.64259659 -100.9609375 260.9140625 C-100.71279297 260.07617188 -100.46464844 259.23828125 -100.20898438 258.375 C-99.93376953 257.4675 -99.65855469 256.56 -99.375 255.625 C-97.25675896 248.44951991 -95.26422449 241.27069929 -93.5 234 C-91.60316041 226.22403109 -89.4666054 218.54006019 -87.23046875 210.85546875 C-85.51952459 204.93296974 -83.96189643 198.98852692 -82.5 193 C-80.57587028 185.12360495 -78.42818845 177.33058885 -76.17114258 169.54345703 C-74.27470799 162.99708101 -72.48651083 156.42944647 -70.76171875 149.8359375 C-70.23461173 147.8734775 -69.64258004 145.92774011 -69 144 C-69.88042969 143.90203125 -70.76085937 143.8040625 -71.66796875 143.703125 C-77.64492522 142.84563338 -83.46681104 141.23261643 -89.3125 139.75 C-90.55475342 139.43716064 -91.79700684 139.12432129 -93.0769043 138.80200195 C-102.76113772 136.34846197 -112.39728838 133.7539463 -122 131 C-123.32678584 130.62096395 -124.6536073 130.24205256 -125.98046875 129.86328125 C-127.47513672 129.43595703 -127.47513672 129.43595703 -129 129 C-127.57147636 125.74439173 -125.82975638 123.58145197 -123.31982422 121.0769043 C-122.56498749 120.31899094 -121.81015076 119.56107758 -121.03244019 118.78019714 C-120.2147818 117.96972427 -119.39712341 117.1592514 -118.5546875 116.32421875 C-117.71084503 115.4808345 -116.86700256 114.63745026 -115.99758911 113.76850891 C-114.20941562 111.98335678 -112.41881206 110.20063602 -110.62597656 108.42016602 C-107.90118604 105.71351175 -105.18436254 102.99906236 -102.46875 100.28320312 C-100.72703129 98.54640475 -98.98485805 96.81006206 -97.2421875 95.07421875 C-96.033918 93.86761848 -96.033918 93.86761848 -94.80123901 92.63664246 C-94.02748932 91.86927261 -93.25373962 91.10190277 -92.45654297 90.3112793 C-91.78750946 89.64605759 -91.11847595 88.98083588 -90.4291687 88.29545593 C-88.38922592 86.36780112 -86.31305255 84.52714531 -84.19010925 82.69308472 C-80.1236508 79.15428265 -76.29699 75.42514763 -72.50170898 71.59936523 C-71.79977417 70.89597015 -71.09783936 70.19257507 -70.37463379 69.46786499 C-68.86490352 67.9543563 -67.35632855 66.43969447 -65.84881401 64.92397881 C-63.45850726 62.52080493 -61.06500005 60.1208595 -58.67066956 57.72169495 C-53.59012404 52.62977301 -48.51352395 47.53392887 -43.4375 42.4375 C-37.54814561 36.52448911 -31.657155 30.6131278 -25.76191902 24.7059803 C-23.41183706 22.34944887 -21.06480375 19.98991017 -18.71788025 17.63023376 C-17.26836819 16.17708708 -15.81871437 14.72408179 -14.36889648 13.27124023 C-13.72402786 12.62120529 -13.07915924 11.97117035 -12.41474915 11.30143738 C-8.4351025 7.32133255 -4.3154709 3.61422557 0 0 Z " fill="#FDFDFD" transform="translate(993,863)"/>
</svg>
