<?xml version="1.0" encoding="UTF-8"?>
<svg version="1.1" xmlns="http://www.w3.org/2000/svg" width="2161" height="2161">
<path d="M0 0 C28.01939154 -0.11277853 55.99774604 -0.05552356 84 1 C87.63875777 9.64182471 90.60840778 18.49508481 93.5859375 27.37890625 C94.12462636 28.97906324 94.66358817 30.57912837 95.20280457 32.17910767 C96.34103214 35.55804255 97.47761188 38.93752504 98.61282349 42.31747437 C100.38859025 47.60432737 102.16828309 52.8898528 103.94897461 58.17504883 C104.24298881 59.04770606 104.537003 59.92036329 104.83992672 60.81946468 C105.42983972 62.57031354 106.01977079 64.3211563 106.60972023 66.07199287 C107.48514743 68.67038587 108.36024107 71.26889102 109.23527527 73.86741638 C113.31606096 85.98381784 117.41973178 98.09213349 121.5625 110.1875 C122.09034051 111.72924515 122.61817257 113.27099318 123.14599609 114.81274414 C123.93204117 117.1086911 124.71809052 119.40463654 125.5043335 121.70051575 C129.18743967 132.46091481 132.84128253 143.23129073 136.5 154 C141.65491064 169.17069885 146.81835262 184.33841215 152 199.5 C158.22722168 217.72175339 164.42753502 235.95260086 170.62409973 254.18479919 C171.16015083 255.762015 171.16015083 255.762015 171.70703125 257.37109375 C172.06460007 258.4231752 172.42216888 259.47525665 172.79057312 260.55921936 C176.21455535 270.63284554 179.64246365 280.7051334 183.07159424 290.77700806 C184.05872798 293.6764208 185.04573223 296.5758776 186.03271484 299.4753418 C189.08661115 308.44626861 192.14168125 317.41679257 195.19981384 326.38627625 C196.62482468 330.5661022 198.04923798 334.74613167 199.47360229 338.92617798 C200.14039918 340.88247635 200.80747713 342.83867895 201.47488403 344.79476929 C206.38148418 359.17564931 211.19476406 373.58429217 216 388 C188.94 388 161.88 388 134 388 C131.81375 381.565 129.6275 375.13 127.375 368.5 C121.79728505 352.11683181 116.14591014 335.76172568 110.41137695 319.43286133 C105.76305723 306.19544814 101.15616961 292.94397172 96.5625 279.6875 C91.22464268 264.28594125 85.87417719 248.88892396 80.5 233.5 C75.12582252 218.11107521 69.7756787 202.71394783 64.4375 187.3125 C59.314953 172.53344609 54.17525973 157.76067907 49 143 C43.82473982 128.23931965 38.68536971 113.46644285 33.5625 98.6875 C28.0720498 82.85083694 22.57788066 67.01550085 17.0625 51.1875 C16.75368896 50.30065521 16.44487793 49.41381042 16.12670898 48.50009155 C13.06915263 39.72237374 9.99690246 30.95092727 6.84375 22.20703125 C6.48185829 21.20206856 6.48185829 21.20206856 6.11265564 20.17680359 C5.0126331 17.12457416 3.90677096 14.07468358 2.79125977 11.02807617 C2.41799561 9.99787354 2.04473145 8.9676709 1.66015625 7.90625 C1.33668213 7.02259766 1.01320801 6.13894531 0.67993164 5.22851562 C0 3 0 3 0 0 Z " fill="#12332D" transform="translate(673,924)"/>
<path d="M0 0 C82.9276053 -0.11087737 165.85302278 -0.09042024 248.77946854 0.40571976 C253.17285863 0.43197 257.56625338 0.45731048 261.95965058 0.48234075 C310.31018894 0.75824008 358.65410905 1.27480658 407 2 C405.9268617 7.76056032 404.7218862 13.33468693 402.86108398 18.90258789 C402.65757324 19.51691681 402.4540625 20.13124573 402.24438477 20.76419067 C401.58409782 22.75233802 400.91534811 24.73751154 400.24609375 26.72265625 C399.78008369 28.11829731 399.31452038 29.51408761 398.84938049 30.91001892 C397.88059768 33.81326105 396.907838 36.71512741 395.93188477 39.6159668 C394.67921933 43.33971934 393.43463045 47.0661099 392.19268703 50.79345036 C391.23516817 53.66546472 390.27453372 56.53642864 389.31282234 59.40704155 C388.85238731 60.78197585 388.39268209 62.15715477 387.93371391 63.53257942 C387.29533992 65.44338668 386.65254499 67.35271527 386.00952148 69.26196289 C385.64471176 70.34876846 385.27990204 71.43557404 384.90403748 72.55531311 C384 75 384 75 383 76 C381.42084505 76.15293912 379.83507435 76.23805443 378.24959946 76.29627895 C377.21993191 76.33525219 376.19026436 76.37422542 375.12939477 76.41437966 C373.98645951 76.45145136 372.84352425 76.48852306 371.66595459 76.52671814 C370.46177942 76.56814939 369.25760425 76.60958065 368.01693892 76.6522674 C352.96576796 77.13984878 337.90966341 77.33870418 322.85245299 77.53878057 C318.51294663 77.59714741 314.17349243 77.65919165 309.83403015 77.72073364 C301.37374377 77.84015461 292.9134155 77.95629227 284.45306739 78.071248 C274.56870116 78.20567613 264.6843819 78.34341943 254.80006275 78.48125803 C237.14848176 78.7272979 219.49686075 78.97033679 201.84521484 79.21166992 C184.77454466 79.44506223 167.70390686 79.68066578 150.63330078 79.91870117 C149.58106718 79.93337343 148.52883357 79.94804568 147.4447141 79.96316255 C146.39417402 79.97781129 145.34363394 79.99246004 144.26125932 80.00755268 C124.7378975 80.27976708 105.2145069 80.54986701 85.69110258 80.81901504 C78.82468349 80.9137231 71.95827318 81.00905186 65.09186554 81.10458565 C56.71083479 81.22115174 48.32978811 81.33649058 39.94872031 81.45036215 C35.68451093 81.50832083 31.42030955 81.56674826 27.15612602 81.62658119 C9.43679298 81.87484644 -8.27840355 82.07272817 -26 82 C-25.40725778 76.87769578 -24.25485695 72.20654687 -22.59155273 67.32055664 C-22.34756744 66.58801666 -22.10358215 65.85547668 -21.85220337 65.10073853 C-21.05168 62.70193474 -20.24271666 60.30607157 -19.43359375 57.91015625 C-18.87399186 56.23881805 -18.31492279 54.56730136 -17.75636292 52.89561462 C-16.29031293 48.51268084 -14.81706939 44.13219855 -13.34228516 39.75219727 C-11.83644546 35.27571697 -10.33746236 30.7969424 -8.83789062 26.31835938 C-5.89861126 17.54332139 -2.95172281 8.77085944 0 0 Z " fill="#12332D" transform="translate(759,1438)"/>
<path d="M0 0 C2 1 2 1 2.88348389 3.11837769 C3.1807135 4.05368317 3.47794312 4.98898865 3.78417969 5.95263672 C4.29546417 7.54227737 4.29546417 7.54227737 4.81707764 9.16403198 C5.18166077 10.3241983 5.5462439 11.48436462 5.921875 12.6796875 C6.30434387 13.87618927 6.68681274 15.07269104 7.08087158 16.30545044 C8.103291 19.50883547 9.11904935 22.71418241 10.13171387 25.9206543 C11.13957804 29.10642042 12.15618822 32.28937535 13.171875 35.47265625 C14.73730443 40.38315362 16.29637046 45.29559438 17.84960938 50.20996094 C19.19361086 54.46178709 20.54751696 58.71009865 21.91601562 62.95410156 C22.20019348 63.83977814 22.48437134 64.72545471 22.77716064 65.63796997 C23.29390488 67.24752412 23.81381466 68.85606704 24.33758545 70.46334839 C25.28533664 73.42737361 26 75.86669915 26 79 C24.13851297 80.53611787 22.31509907 81.85591594 20.3125 83.1875 C14.00371953 87.53224948 7.88620882 92.08268154 1.8125 96.75 C-4.90970573 101.90202022 -11.66624354 106.99685498 -18.5 112 C-25.22508218 116.92549154 -31.88053292 121.93348707 -38.5 127 C-45.88268346 132.65067561 -53.32359573 138.21023936 -60.82495117 143.70214844 C-66.87779513 148.14481102 -72.85247959 152.68378637 -78.8125 157.25 C-85.00877085 161.99569878 -91.24064107 166.65458099 -97.62548828 171.14257812 C-103.84399405 175.54319952 -109.86366787 180.20347725 -115.91015625 184.8359375 C-121.72852838 189.28724225 -127.58907773 193.6724824 -133.5 198 C-140.22508218 202.92549154 -146.88053292 207.93348707 -153.5 213 C-160.88268346 218.65067561 -168.32359573 224.21023936 -175.82495117 229.70214844 C-181.87779513 234.14481102 -187.85247959 238.68378637 -193.8125 243.25 C-200.00877085 247.99569878 -206.24064107 252.65458099 -212.62548828 257.14257812 C-218.84399405 261.54319952 -224.86366787 266.20347725 -230.91015625 270.8359375 C-236.72852838 275.28724225 -242.58907773 279.6724824 -248.5 284 C-255.22509109 288.92549807 -261.88023838 293.9338621 -268.5 299 C-275.48502495 304.34053493 -282.49562652 309.64311067 -289.5625 314.875 C-290.35398437 315.46410156 -291.14546875 316.05320312 -291.9609375 316.66015625 C-292.69699219 317.20285156 -293.43304687 317.74554687 -294.19140625 318.3046875 C-294.83279541 318.77890137 -295.47418457 319.25311523 -296.13500977 319.74169922 C-298.0263019 321.01774577 -299.95311603 321.99868797 -302 323 C-305.2067465 315.38568048 -307.79948256 307.64958623 -310.2578125 299.765625 C-310.85236647 297.8758977 -311.44692064 295.98617047 -312.04148674 294.09644699 C-312.86410607 291.47839255 -313.6831004 288.85920949 -314.50219727 286.24005127 C-315.74221664 282.27779807 -316.98746191 278.31718485 -318.23209953 274.35638046 C-319.2000057 271.27596602 -320.16683654 268.19522401 -321.13162231 265.11383057 C-321.47893402 264.00537781 -321.82624573 262.89692505 -322.18408203 261.75488281 C-322.63897507 260.30121307 -322.63897507 260.30121307 -323.10305786 258.81817627 C-323.7440318 256.80424753 -324.42148177 254.80178156 -325.12278748 252.80805969 C-326.1127925 249.63893805 -326.14013732 248.10194516 -325 245 C-323.42797852 243.36938477 -323.42797852 243.36938477 -321.37890625 241.94140625 C-320.61771484 241.39806641 -319.85652344 240.85472656 -319.07226562 240.29492188 C-318.24404297 239.72322266 -317.41582031 239.15152344 -316.5625 238.5625 C-314.81219738 237.31605239 -313.06353731 236.06729552 -311.31640625 234.81640625 C-309.98053467 233.86531982 -309.98053467 233.86531982 -308.61767578 232.89501953 C-304.66359559 230.03253395 -300.83191511 227.02297421 -297 224 C-290.97056568 219.26861468 -284.87232832 214.65132687 -278.6875 210.125 C-268.34958922 202.5580318 -258.17225899 194.78755359 -248 187 C-236.93237314 178.52698163 -225.83646531 170.10603205 -214.59667969 161.86230469 C-208.6235846 157.47600913 -202.74039168 152.98933611 -196.88085938 148.45214844 C-185.34220875 139.54354331 -173.71828085 130.75841883 -161.95458984 122.14941406 C-156.56351554 118.18958847 -151.26345097 114.12761134 -146 110 C-139.96903261 105.27050037 -133.87240086 100.65137996 -127.6875 96.125 C-117.34958922 88.5580318 -107.17225899 80.78755359 -97 73 C-85.93237314 64.52698163 -74.83646531 56.10603205 -63.59667969 47.86230469 C-57.6235846 43.47600913 -51.74039168 38.98933611 -45.88085938 34.45214844 C-32.66981028 24.25234054 -19.3378192 14.22301791 -5.86499023 4.37182617 C-3.9005883 2.92687598 -1.94876012 1.46595797 0 0 Z " fill="#12332D" transform="translate(1132,685)"/>
<path d="M0 0 C5.11281402 2.78940431 9.70163452 5.88924007 14.3125 9.4375 C20.15077022 13.87524444 26.04166496 18.22484316 32 22.5 C37.96698303 26.7939308 43.91363522 31.11282202 49.8125 35.5 C50.46412109 35.98017578 51.11574219 36.46035156 51.78710938 36.95507812 C52.7065332 37.6424707 52.7065332 37.6424707 53.64453125 38.34375 C54.17409424 38.73755859 54.70365723 39.13136719 55.24926758 39.53710938 C57.65134318 41.5442544 59.80894409 43.76713629 62 46 C61.67317734 47.09749573 61.67317734 47.09749573 61.3397522 48.21716309 C49.89473093 86.65378073 38.4818108 125.09972052 27.125 163.5625 C24.92196487 171.02346404 22.7188962 178.48441817 20.515625 185.9453125 C20.24332817 186.86739691 19.97103134 187.78948132 19.69048309 188.73950768 C14.01045066 207.97291413 8.31679681 227.20227372 2.61811066 246.43016052 C1.87547659 248.93589191 1.13289226 251.44163804 0.39031982 253.9473877 C-4.34623535 269.93028701 -9.08420062 285.91276794 -13.82408905 301.89467907 C-15.87298122 308.80321221 -17.92127951 315.7119213 -19.96933746 322.62070179 C-21.22827195 326.86725544 -22.48763117 331.11368227 -23.7479248 335.35983276 C-28.9219586 352.79208716 -34.07801878 370.22906308 -39.16062927 387.68822289 C-39.87342868 390.13574772 -40.587211 392.58298346 -41.3013916 395.03010559 C-41.5318367 395.81976935 -41.7622818 396.60943312 -41.99971008 397.42302608 C-42.45750296 398.99166538 -42.91533734 400.56029257 -43.37321472 402.1289072 C-44.69269618 406.65189579 -46.00492718 411.17690887 -47.31171608 415.7035799 C-48.10752796 418.45457697 -48.90962239 421.20371209 -49.71346664 423.9523716 C-50.26000059 425.82886513 -50.79845416 427.70770612 -51.33670044 429.58659363 C-51.66048676 430.68981461 -51.98427307 431.79303558 -52.31787109 432.9296875 C-52.73557266 434.37190674 -52.73557266 434.37190674 -53.16171265 435.84326172 C-54 438 -54 438 -56 439 C-63.80736598 433.47243583 -71.55718414 427.87356287 -79.25 422.1875 C-93.06286716 411.98076986 -107.0108653 401.96332263 -121 392 C-119.41028084 384.12632078 -117.093841 376.54381689 -114.6875 368.88671875 C-114.24611276 367.47244763 -113.80507786 366.0580665 -113.36436462 364.64358521 C-112.41413058 361.5960274 -111.46169948 358.54916851 -110.50753784 355.50283813 C-108.97068674 350.59577404 -107.43903005 345.68709856 -105.90844727 340.77807617 C-105.64679936 339.93894212 -105.38515146 339.09980806 -105.11557484 338.2352457 C-104.57941222 336.51570513 -104.04326204 334.79616069 -103.50712395 333.07661247 C-102.68328112 330.43488351 -101.85897069 327.79330082 -101.03456116 325.15174866 C-95.24491181 306.59757197 -89.49905215 288.02989871 -83.75663757 269.46105957 C-82.38336972 265.02080211 -81.00956144 260.58071188 -79.63574219 256.140625 C-79.36403639 255.2624902 -79.09233059 254.38435539 -78.81239128 253.47961044 C-78.26558993 251.71239631 -77.71878551 249.94518312 -77.171978 248.17797089 C-76.35839804 245.54852979 -75.54487169 242.91907211 -74.73135376 240.28961182 C-69.409072 223.0874091 -64.08031156 205.887216 -58.75 188.6875 C-58.2987354 187.23133378 -57.84747197 185.77516719 -57.39620972 184.31900024 C-55.60497849 178.53894914 -53.8137088 172.75890995 -52.02235413 166.97889709 C-48.39285217 155.26788678 -44.76383697 143.55672568 -41.13516235 131.84545898 C-40.67490708 130.36002583 -40.21465114 128.87459289 -39.75439453 127.38916016 C-39.41256103 126.28592596 -39.41256103 126.28592596 -39.06382179 125.16040421 C-37.6978054 120.75180455 -36.33160993 116.34326043 -34.96525764 111.93476486 C-33.83355259 108.28335039 -32.70191472 104.6319151 -31.5703125 100.98046875 C-31.23331392 99.89304886 -31.23331392 99.89304886 -30.88950729 98.78366089 C-27.72796023 88.58156921 -24.56965729 78.37847753 -21.41351318 68.17471313 C-19.63630595 62.42907984 -17.85825272 56.68370845 -16.08001328 50.93839455 C-14.63368604 46.26517692 -13.18847988 41.5916146 -11.74413872 36.91778278 C-10.85018238 34.02595321 -9.95512956 31.13446385 -9.05978775 28.24306297 C-8.64866668 26.91461476 -8.23798874 25.58602931 -7.82781601 24.25728798 C-5.32049938 16.13585955 -2.72450729 8.05127796 0 0 Z " fill="#12332D" transform="translate(1327,1070)"/>
<path d="M0 0 C3.90902288 2.30677804 7.6500478 4.80626346 11.375 7.3984375 C12.21297119 7.9766626 13.05094238 8.5548877 13.91430664 9.15063477 C20.28334545 13.56383172 26.57555803 18.07887521 32.84228516 22.63574219 C40.91464234 28.49983975 49.10180479 34.19679081 57.28417969 39.90576172 C60.98924479 42.49599516 64.68302628 45.10209127 68.375 47.7109375 C69.064729 48.19828369 69.75445801 48.68562988 70.46508789 49.18774414 C71.84708101 50.16444354 73.22899869 51.14124968 74.61083984 52.11816406 C78.13517516 54.60914736 81.66144701 57.09738653 85.1875 59.5859375 C86.60417568 60.58592472 88.02084236 61.58592472 89.4375 62.5859375 C90.13875 63.0809375 90.84 63.5759375 91.5625 64.0859375 C182.9375 128.5859375 182.9375 128.5859375 185.06176758 130.08544922 C186.48083958 131.08712793 187.89994775 132.0887554 189.3190918 133.09033203 C192.82425274 135.56423245 196.32881515 138.03897116 199.83203125 140.515625 C207.43759937 145.89098894 215.05526805 151.24848764 222.6875 156.5859375 C231.01151819 162.40717433 239.31668349 168.2544795 247.61083984 174.11816406 C251.13517516 176.60914736 254.66144701 179.09738653 258.1875 181.5859375 C259.60417568 182.58592472 261.02084236 183.58592472 262.4375 184.5859375 C263.13875 185.0809375 263.84 185.5759375 264.5625 186.0859375 C272.35416667 191.5859375 280.14583333 197.0859375 287.9375 202.5859375 C288.63891113 203.08101807 289.34032227 203.57609863 290.06298828 204.08618164 C291.47815369 205.08518889 292.89319298 206.08437481 294.30810547 207.08374023 C297.87172327 209.60041716 301.43754986 212.11385062 305.0078125 214.62109375 C314.31790053 221.1651945 323.53739803 227.81992323 332.6875 234.5859375 C331.38588653 238.49077792 329.01133317 239.74039849 325.75 241.9609375 C324.46560025 242.85598843 323.18177371 243.75186232 321.8984375 244.6484375 C321.21362305 245.12410156 320.52880859 245.59976563 319.82324219 246.08984375 C316.14158539 248.66885528 312.51193782 251.31943851 308.875 253.9609375 C302.12854001 258.84675375 295.3449106 263.67660765 288.52026367 268.45263672 C287.87162354 268.90783691 287.2229834 269.36303711 286.5546875 269.83203125 C285.92014648 270.27401855 285.28560547 270.71600586 284.63183594 271.17138672 C283.25491978 272.17312607 281.91164231 273.22186565 280.59472656 274.30126953 C279.90604492 274.86056152 279.21736328 275.41985352 278.5078125 275.99609375 C277.89437988 276.51437744 277.28094727 277.03266113 276.64892578 277.56665039 C274.6875 278.5859375 274.6875 278.5859375 272.26074219 278.45068359 C269.3155307 277.46093605 267.22363048 276.14595798 264.6953125 274.33984375 C263.75147705 273.67299561 262.8076416 273.00614746 261.83520508 272.3190918 C260.33896606 271.24461792 260.33896606 271.24461792 258.8125 270.1484375 C256.71559595 268.6656024 254.61794122 267.18382827 252.51953125 265.703125 C251.50713379 264.98608398 250.49473633 264.26904297 249.45166016 263.53027344 C246.1686973 261.22100686 242.84931873 258.98532602 239.5 256.7734375 C232.39803103 252.08164823 225.35376106 247.3056273 218.3125 242.5234375 C217.70857422 242.11332428 217.10464844 241.70321106 216.48242188 241.28067017 C212.21665887 238.3835864 207.95195699 235.48494321 203.6875 232.5859375 C202.58382696 231.83576688 201.48014874 231.08560388 200.37646484 230.33544922 C194.17152501 226.11776843 187.96760338 221.89859258 181.76416016 217.67871094 C176.57234595 214.14718964 171.37988775 210.61661544 166.1875 207.0859375 C164.10416364 205.66927528 162.02083031 204.25260862 159.9375 202.8359375 C158.90625 202.1346875 157.875 201.4334375 156.8125 200.7109375 C122.4375 177.3359375 122.4375 177.3359375 119.31323242 175.21142578 C117.22746979 173.79311371 115.14169503 172.37481947 113.0559082 170.95654297 C107.88464414 167.44019634 102.71358328 163.92355168 97.54296875 160.40625 C86.59548504 152.95973824 75.64420635 145.51886953 64.6875 138.0859375 C52.70728611 129.95866706 40.73403754 121.82119955 28.76416016 113.67871094 C23.57234595 110.14718964 18.37988775 106.61661544 13.1875 103.0859375 C11.10416364 101.66927528 9.02083031 100.25260862 6.9375 98.8359375 C5.390625 97.7840625 5.390625 97.7840625 3.8125 96.7109375 C-5.5625 90.3359375 -5.5625 90.3359375 -8.68920898 88.2097168 C-10.76677301 86.79701223 -12.84440941 85.3844141 -14.92211914 83.97192383 C-20.21932973 80.37051856 -25.51516242 76.76711448 -30.80859375 73.16015625 C-42.9326683 64.90175514 -55.08510682 56.69068471 -67.3125 48.5859375 C-65.93861561 45.34923262 -64.53741139 43.71718369 -61.671875 41.703125 C-60.57166016 40.92001953 -60.57166016 40.92001953 -59.44921875 40.12109375 C-58.66160156 39.57324219 -57.87398437 39.02539062 -57.0625 38.4609375 C-56.24910156 37.88472656 -55.43570312 37.30851563 -54.59765625 36.71484375 C-52.94449767 35.54439709 -51.28890828 34.37737589 -49.63085938 33.21386719 C-46.51123253 31.02329518 -43.41186316 28.8050245 -40.3125 26.5859375 C-39.48745972 25.99800415 -39.48745972 25.99800415 -38.64575195 25.39819336 C-34.61177622 22.52338613 -30.59661809 19.62330439 -26.58666992 16.71508789 C-24.28569678 15.04928047 -21.97925487 13.39129255 -19.671875 11.734375 C-16.9085366 9.7486046 -14.17092633 7.73506148 -11.453125 5.6875 C-10.30231146 4.84083567 -9.15128465 3.9944611 -8 3.1484375 C-7.01386719 2.40722656 -6.02773437 1.66601562 -5.01171875 0.90234375 C-2.3125 -0.4140625 -2.3125 -0.4140625 0 0 Z " fill="#12332D" transform="translate(1242.3125,758.4140625)"/>
<path d="M0 0 C4.9456584 1.63564828 8.83888236 4.47781906 13.0625 7.4375 C14.76902285 8.6192241 16.47608804 9.80016526 18.18359375 10.98046875 C19.11284668 11.62419434 20.04209961 12.26791992 20.99951172 12.93115234 C25.92704033 16.32870137 30.88340808 19.68362061 35.83892822 23.04013062 C38.85052087 25.0801571 41.86073663 27.12221346 44.87109375 29.1640625 C45.76876465 29.77283485 45.76876465 29.77283485 46.68457031 30.39390564 C52.6887967 34.46615813 58.68864045 38.54484626 64.6875 42.625 C65.70884033 43.31964355 66.73018066 44.01428711 67.7824707 44.72998047 C71.87626049 47.51447033 75.96986507 50.29923241 80.06347656 53.08398438 C92.03775661 61.22939027 104.01541577 69.36976476 116 77.5 C130.02868523 87.01693516 144.04702358 96.54904314 158.06347656 106.08398438 C170.03775661 114.22939027 182.01541577 122.36976476 194 130.5 C208.02868523 140.01693516 222.04702358 149.54904314 236.06347656 159.08398438 C248.03775661 167.22939027 260.01541577 175.36976476 272 183.5 C286.72853992 193.49171035 301.44634291 203.49917697 316.16081238 213.51159668 C318.45147617 215.07019886 320.74228368 216.62858972 323.03311157 218.18695068 C324.64095368 219.2808326 326.24858065 220.37503074 327.85620117 221.46923828 C332.55713036 224.66712299 337.26065629 227.85927648 342 231 C337.98766163 235.2882359 333.60021145 238.61679406 328.8125 242 C327.19392243 243.15612683 325.57543536 244.31238037 323.95703125 245.46875 C323.13283691 246.05527344 322.30864258 246.64179687 321.45947266 247.24609375 C317.62661712 249.97939077 313.81392862 252.7403895 310 255.5 C308.51570619 256.57172704 307.03133075 257.64334103 305.546875 258.71484375 C302.38844669 260.99570179 299.23260539 263.28009156 296.078125 265.56640625 C295.26988281 266.15164063 294.46164062 266.736875 293.62890625 267.33984375 C292.08918228 268.45481628 290.55007825 269.57064563 289.01171875 270.6875 C287.63629028 271.68297585 286.25694558 272.67307166 284.87304688 273.65673828 C283.67689535 274.51456228 282.4941071 275.39154927 281.33007812 276.29248047 C279.00246514 278.0248472 277.47389339 278.99173878 274.53515625 279.04296875 C271.10523825 277.63189309 268.34556706 275.56642877 265.4375 273.3125 C264.10186272 272.30516364 262.76453332 271.30006809 261.42578125 270.296875 C260.71244629 269.76126953 259.99911133 269.22566406 259.26416016 268.67382812 C255.27375005 265.72383334 251.19804897 262.89672522 247.125 260.0625 C245.41270225 258.868573 243.70046251 257.6745628 241.98828125 256.48046875 C240.73265381 255.60527588 240.73265381 255.60527588 239.45166016 254.71240234 C235.72959946 252.11266786 232.02007456 249.49533588 228.3125 246.875 C227.6230127 246.38781494 226.93352539 245.90062988 226.22314453 245.39868164 C224.84090269 244.42182597 223.45874081 243.44485714 222.07666016 242.46777344 C218.55232484 239.97679014 215.02605299 237.48855097 211.5 235 C210.08332432 234.00001278 208.66665764 233.00001278 207.25 232 C206.54875 231.505 205.8475 231.01 205.125 230.5 C135 181 64.875 131.5 -22.25 70 C-22.95205566 69.50443604 -23.65411133 69.00887207 -24.37744141 68.49829102 C-25.78598812 67.50401322 -27.19451693 66.50971007 -28.60302734 65.51538086 C-32.2687787 62.92761684 -35.93489322 60.3403695 -39.6015625 57.75390625 C-40.35888672 57.21958984 -41.11621094 56.68527344 -41.89648438 56.13476562 C-43.33256565 55.12157945 -44.76875525 54.10854677 -46.20507812 53.09570312 C-50.48084873 50.07874624 -54.74434921 47.04527738 -59 44 C-54.97018886 39.69254439 -50.5556673 36.34065495 -45.75 32.9375 C-44.95787109 32.37095703 -44.16574219 31.80441406 -43.34960938 31.22070312 C-37.39591121 26.9694127 -31.41577948 22.75510323 -25.43261719 18.54541016 C-19.92958626 14.66961956 -14.45830982 10.75099404 -9 6.8125 C-8.21560547 6.24724609 -7.43121094 5.68199219 -6.62304688 5.09960938 C-5.54120117 4.3174707 -5.54120117 4.3174707 -4.4375 3.51953125 C-3.79683594 3.05651611 -3.15617187 2.59350098 -2.49609375 2.11645508 C-1.03109742 1.07903182 -1.03109742 1.07903182 0 0 Z " fill="#12332D" transform="translate(1160,815)"/>
<path d="M0 0 C5.2772868 1.63995367 9.27492767 4.96706033 13.625 8.25 C15.33582956 9.52618638 17.04677014 10.80222394 18.7578125 12.078125 C20.06540527 13.05749023 20.06540527 13.05749023 21.39941406 14.05664062 C25.41726545 17.05909059 29.45896397 20.02887315 33.5 23 C35.06264814 24.15084055 36.62514721 25.30188353 38.1875 26.453125 C38.96867187 27.02869141 39.74984375 27.60425781 40.5546875 28.19726562 C43.14148502 30.10430565 45.72708347 32.01296323 48.3125 33.921875 C49.18068359 34.56253906 50.04886719 35.20320313 50.94335938 35.86328125 C52.61174074 37.09449316 54.27972791 38.32623946 55.94726562 39.55859375 C56.69685547 40.11160156 57.44644531 40.66460938 58.21875 41.234375 C59.2077832 41.96479004 59.2077832 41.96479004 60.21679688 42.70996094 C61.78467986 43.84422897 63.38985454 44.92656969 65 46 C64.35024918 52.0704102 62.71947215 57.60882371 60.87890625 63.41796875 C60.55224472 64.46458176 60.22558319 65.51119476 59.88902283 66.58952332 C59.16892838 68.89454549 58.44636495 71.1987974 57.72167969 73.50238037 C56.52965733 77.29190933 55.34384149 81.08334965 54.16015625 84.87548828 C53.73991167 86.22156167 53.31965389 87.56763094 52.89938354 88.91369629 C52.68635464 89.59600815 52.47332573 90.27832001 52.2538414 90.98130798 C51.58701867 93.11608659 50.91947229 95.25063772 50.2517395 97.38513184 C45.17888032 113.60437107 40.15932669 129.84006726 35.1388855 146.07559204 C33.48077087 151.43758335 31.8216812 156.79927265 30.16235352 162.16088867 C29.88445197 163.0588469 29.60655043 163.95680513 29.32022762 164.88197422 C28.75664486 166.70301887 28.19305989 168.52406284 27.62947273 170.34510612 C26.49594334 174.00783858 25.36254018 177.67061008 24.22914028 181.33338261 C20.10323603 194.6669255 15.97643 208.00018921 11.84931946 221.33335876 C11.31010939 223.07534788 10.77089939 224.81733702 10.23168945 226.55932617 C9.96508924 227.42061095 9.69848902 228.28189573 9.42381001 229.16928005 C7.53519657 235.27075302 5.64682793 241.37230172 3.75854492 247.47387695 C2.6762899 250.97087219 1.59401345 254.46786079 0.51171875 257.96484375 C0.24391287 258.83014772 -0.02389301 259.6954517 -0.29981422 260.58697701 C-4.12354882 272.94141944 -7.95018645 285.29495984 -11.77852631 297.64797592 C-14.24882302 305.61928605 -16.71839179 313.59082166 -19.1875 321.5625 C-19.45436363 322.42408218 -19.72122726 323.28566437 -19.99617767 324.1733551 C-31.74014099 362.09226742 -43.38612355 400.04106591 -55 438 C-59.19360445 436.41768176 -62.17181926 434.49544893 -65.6875 431.6875 C-70.90953073 427.57592721 -76.22370505 423.62291461 -81.625 419.75 C-89.00747366 414.45220422 -96.33640238 409.08667995 -103.63134766 403.66894531 C-107.68792894 400.66530419 -111.77012822 397.75480503 -116 395 C-115.42335682 390.41312805 -114.57486946 386.12418359 -113.24780273 381.69775391 C-112.70197792 379.86351364 -112.70197792 379.86351364 -112.14512634 377.99221802 C-111.74135069 376.6536455 -111.3375041 375.31509438 -110.93359375 373.9765625 C-110.50760449 372.55131456 -110.08208529 371.12592606 -109.65699768 369.70040894 C-108.73957186 366.62713649 -107.81910016 363.55479929 -106.89624023 360.4831543 C-105.41210539 355.54300915 -103.9348992 350.60080941 -102.45898438 345.65820312 C-101.94871439 343.94964168 -101.43842984 342.24108459 -100.9281311 340.53253174 C-100.67239948 339.6763047 -100.41666786 338.82007767 -100.1531868 337.93790436 C-99.36365731 335.29542345 -98.57345056 332.65314594 -97.78305054 330.01092529 C-92.65614506 312.86989729 -87.57380199 295.71577736 -82.49734497 278.55975342 C-79.97915167 270.04973255 -77.45846472 261.54045022 -74.9375 253.03125 C-74.68868135 252.19135906 -74.43986271 251.35146812 -74.1835041 250.48612595 C-68.57667488 231.5613755 -62.95078791 212.64230517 -57.32287598 193.72381592 C-49.36397457 166.96919934 -41.42783283 140.20789235 -33.50265503 113.44326782 C-27.88856234 94.48379086 -22.26777116 75.52634464 -16.62890625 56.57421875 C-16.37081554 55.70668598 -16.11272484 54.83915321 -15.8468132 53.94533157 C-13.36237416 45.59430116 -10.87730847 37.2434586 -8.38958836 28.89340496 C-7.49131868 25.87780813 -6.59371955 22.86201198 -5.6962719 19.84617043 C-5.28109502 18.45160251 -4.86560182 17.05712872 -4.44976997 15.66275597 C-3.88312528 13.76262851 -3.31763105 11.86215807 -2.75219727 9.96166992 C-2.43597916 8.90026291 -2.11976105 7.8388559 -1.79396057 6.74528503 C-1.14603781 4.50495631 -0.54403769 2.26733037 0 0 Z " fill="#12332D" transform="translate(1401,1125)"/>
<path d="M0 0 C2.72582943 8.36969118 5.44702442 16.74087077 8.16236782 25.1139698 C9.423448 29.00217544 10.68609895 32.88985601 11.95239258 36.77636719 C13.17511136 40.52933722 14.39363465 44.28364584 15.60930061 48.0389061 C16.07307845 49.46905525 16.53834816 50.89872152 17.00515556 52.32788467 C17.66034551 54.3346694 18.31013759 56.34312893 18.95874023 58.35205078 C19.32958237 59.49344513 19.7004245 60.63483948 20.08250427 61.81082153 C20.96241356 64.86935103 21.54647912 67.85268738 22 71 C13.32946431 78.07640132 4.51649628 84.89717173 -4.52001953 91.5 C-10.630537 95.97152707 -16.67244768 100.52596163 -22.6875 105.125 C-29.40328814 110.25981275 -36.13724539 115.36692177 -42.90966797 120.42675781 C-48.40556082 124.53936822 -53.85945826 128.70581389 -59.3125 132.875 C-66.05450412 138.02824097 -72.83895685 143.11428479 -79.6875 148.125 C-85.87250278 152.65123638 -91.96903744 157.27050416 -98 162 C-104.803222 167.33510362 -111.7087983 172.50640313 -118.68579102 177.61157227 C-125.55348444 182.6462042 -132.32896703 187.79556957 -139.09301758 192.96826172 C-145.85716745 198.13832051 -152.65985773 203.2545143 -159.47802734 208.35302734 C-165.53394312 212.88693798 -171.55322555 217.46700999 -177.5625 222.0625 C-184.22096133 227.15357784 -190.92320614 232.17546577 -197.6875 237.125 C-203.87248078 241.65126685 -209.96903653 246.27050345 -216 251 C-222.03096739 255.72949963 -228.12759914 260.34862004 -234.3125 264.875 C-241.05221113 269.80821918 -247.73637332 274.80647685 -254.375 279.875 C-255.68235107 280.87309692 -255.68235107 280.87309692 -257.01611328 281.89135742 C-260.57379855 284.61022554 -264.1291667 287.33209162 -267.68212891 290.05712891 C-277.11869565 297.29394962 -286.57496756 304.49767942 -296.1875 311.5 C-297.32868286 312.33760864 -297.32868286 312.33760864 -298.49291992 313.19213867 C-299.19006104 313.69592041 -299.88720215 314.19970215 -300.60546875 314.71875 C-301.21543701 315.16154297 -301.82540527 315.60433594 -302.45385742 316.06054688 C-304 317 -304 317 -306 317 C-308.42668188 309.48044964 -310.85224937 301.96054108 -313.27644062 294.44018745 C-314.40242688 290.94725664 -315.52877981 287.454445 -316.65600586 283.96191406 C-317.74620159 280.58406754 -318.83538826 277.20589711 -319.92391014 273.82751083 C-320.53634312 271.92760289 -321.14978931 270.02802165 -321.76325989 268.12844849 C-322.51033717 265.80867848 -323.2529873 263.48747623 -323.99038696 261.16461182 C-324.63786205 259.13511415 -325.29923842 257.10996854 -325.9781189 255.09075928 C-326.40503525 253.78102142 -326.40503525 253.78102142 -326.84057617 252.44482422 C-327.09046799 251.69997772 -327.3403598 250.95513123 -327.5978241 250.18771362 C-328.09057884 247.50727888 -327.74957166 245.60670606 -327 243 C-325.47558594 241.40112305 -325.47558594 241.40112305 -323.484375 240.01171875 C-322.73865234 239.47869141 -321.99292969 238.94566406 -321.22460938 238.39648438 C-319.99967773 237.55053711 -319.99967773 237.55053711 -318.75 236.6875 C-317.00386194 235.44329364 -315.25911963 234.19712663 -313.515625 232.94921875 C-312.60619141 232.30259277 -311.69675781 231.6559668 -310.75976562 230.98974609 C-306.26916296 227.75209467 -301.88812858 224.37450849 -297.5 221 C-290.11500892 215.34463729 -282.66801535 209.78526877 -275.1640625 204.2890625 C-269.22328388 199.92722837 -263.35252911 195.47937591 -257.5 191 C-250.08717638 185.32769077 -242.62071943 179.73852758 -235.09375 174.21875 C-229.36719994 170.01673906 -223.67631017 165.76959632 -218 161.5 C-211.54927333 156.64790452 -205.07166116 151.83588485 -198.5625 147.0625 C-190.91685547 141.4523016 -183.36661918 135.7247857 -175.83618164 129.96118164 C-169.33396502 124.99326998 -162.76537382 120.12413668 -156.1640625 115.2890625 C-150.22328431 110.92722868 -144.35251303 106.4793966 -138.5 102 C-130.9943524 96.25628366 -123.43312357 90.59794097 -115.8125 85.0078125 C-110.85201802 81.36846391 -105.91521683 77.70023321 -101 74 C-95.30027261 69.70917798 -89.56499947 65.46976112 -83.8125 61.25 C-76.08436511 55.57681778 -68.44997046 49.78860854 -60.8371582 43.96191406 C-54.3404273 38.99822728 -47.77778993 34.13266125 -41.18164062 29.30224609 C-35.06685366 24.81321598 -29.02552396 20.23297363 -23 15.625 C-11.38679114 6.75431214 -11.38679114 6.75431214 -6.3125 3 C-5.10013672 2.1028125 -5.10013672 2.1028125 -3.86328125 1.1875 C-2 0 -2 0 0 0 Z " fill="#12332D" transform="translate(1106,599)"/>
<path d="M0 0 C-1.61762672 8.34164225 -4.29898441 16.28079156 -7.0078125 24.31640625 C-7.49859464 25.78314725 -7.98897501 27.25002274 -8.47897339 28.71702576 C-9.7605526 32.55038929 -11.04752988 36.38191859 -12.33569336 40.21307373 C-13.65288308 44.13378081 -14.96488558 48.05622268 -16.27734375 51.97851562 C-18.84652866 59.65403758 -21.42142687 67.32762692 -24 75 C-73.75646579 74.74266962 -123.51290699 74.48095845 -173.26931763 74.21316528 C-177.73341876 74.18914464 -182.19751993 74.1651284 -186.66162109 74.14111328 C-187.76346843 74.13518355 -188.86531577 74.12925381 -190.00055242 74.12314439 C-205.9165393 74.03752636 -221.83253409 73.95354057 -237.74853516 73.87060547 C-255.13617941 73.77998843 -272.52380676 73.68663957 -289.91141796 73.58987904 C-298.89087749 73.53997656 -307.87033958 73.49125092 -316.849823 73.4458313 C-354.90832646 73.25267471 -392.95140565 72.96810742 -431 72 C-429.0881117 64.7189794 -426.94358294 57.56350865 -424.53125 50.43359375 C-424.20966919 49.47405289 -423.88808838 48.51451202 -423.5567627 47.52589417 C-422.54074182 44.49544639 -421.52067786 41.46638211 -420.5 38.4375 C-419.47985348 35.40487381 -418.46063912 32.37194231 -417.4432373 29.33839417 C-416.81384799 27.46227908 -416.18285798 25.58669988 -415.54992676 23.71177673 C-415.25952515 22.84710281 -414.96912354 21.98242889 -414.66992188 21.09155273 C-414.41915894 20.34751694 -414.168396 19.60348114 -413.91003418 18.8368988 C-412.54352088 14.57699295 -411.2756639 10.2878524 -410 6 C-370.65943141 4.94750731 -331.30942505 4.46506453 -291.95930401 3.9287455 C-282.04726971 3.79357962 -272.13526644 3.65619696 -262.22326367 3.51874197 C-244.54941713 3.27371289 -226.87554657 3.03046457 -209.20166016 2.78833008 C-192.08250368 2.55379264 -174.9633625 2.31817946 -157.84423828 2.08129883 C-156.78387213 2.06662657 -155.72350597 2.05195432 -154.63100751 2.03683745 C-150.36768738 1.97784353 -146.10436729 1.91884705 -141.84104726 1.85984602 C-124.46183034 1.61935822 -107.08260243 1.37966648 -89.70337248 1.14012265 C-85.75353061 1.08567992 -81.80368913 1.03120878 -77.85384798 0.9767139 C-67.50300549 0.83392235 -57.15215947 0.69139488 -46.80130275 0.54963785 C-42.52693841 0.49109815 -38.25257587 0.43243505 -33.97821808 0.37341881 C-30.06787063 0.3194354 -26.15751809 0.26583772 -22.24716108 0.21255172 C-20.83249533 0.19320901 -19.41783148 0.17372802 -18.00316973 0.15409534 C-16.08132996 0.12744663 -14.15948247 0.10135642 -12.23763466 0.07529354 C-11.17016963 0.0606468 -10.10270459 0.04600006 -9.00289214 0.03090948 C-6.00169301 0.00001743 -3.00133492 -0.00541112 0 0 Z " fill="#12332D" transform="translate(1196,1350)"/>
<path d="M0 0 C23.76 0 47.52 0 72 0 C74.02125 5.795625 76.0425 11.59125 78.125 17.5625 C82.61796162 30.44493353 87.11326769 43.32654305 91.61408043 56.20623589 C100.76110779 82.38184388 109.90017342 108.56001254 118.98034668 134.75891113 C125.38622275 153.24167429 131.82188414 171.71391491 138.27044678 190.18182373 C140.34690627 196.12859488 142.42200941 202.07583756 144.49609375 208.0234375 C145.08561182 209.71386724 145.67513005 211.40429693 146.26464844 213.09472656 C146.56012573 213.94200317 146.85560303 214.78927979 147.16003418 215.66223145 C151.61973087 228.45015382 156.08217375 241.2371112 160.54989624 254.02223206 C162.42069404 259.37590516 164.29123094 264.72966943 166.16172028 270.08345032 C166.6369006 271.44351176 167.11209488 272.80356832 167.58730316 274.16362 C172.67203502 288.71635859 177.75301164 303.27032624 182.80078125 317.8359375 C183.17405045 318.91302475 183.54731964 319.990112 183.93190002 321.09983826 C185.71037296 326.23312837 187.48732109 331.36694255 189.26293945 336.5012207 C192.29889923 345.27212353 195.35370812 354.03471962 198.4921875 362.76953125 C198.75898819 363.51351166 199.02578888 364.25749207 199.30067444 365.02401733 C200.51019108 368.39432238 201.7261355 371.7619971 202.95581055 375.125 C203.56743042 376.82076172 203.56743042 376.82076172 204.19140625 378.55078125 C204.72036499 379.99964722 204.72036499 379.99964722 205.26000977 381.4777832 C206 384 206 384 206 388 C180.98738812 388.19459243 156.00327132 387.62800468 131 387 C122.09433179 361.93477563 113.50261024 336.7666206 105 311.5625 C104.60701784 310.39763817 104.60701784 310.39763817 104.20609665 309.20924377 C102.89037814 305.30909103 101.57481729 301.40888511 100.2592926 297.50866699 C100.00355532 296.75047165 99.74781803 295.99227631 99.48433113 295.21110535 C98.97252343 293.69367017 98.46074731 292.17622433 97.94900322 290.6587677 C93.8459536 278.49283227 89.72020531 266.3348805 85.5625 254.1875 C84.48826389 251.04818302 83.41403732 247.90886278 82.33984375 244.76953125 C82.07526367 243.99641098 81.81068359 243.22329071 81.53808594 242.42674255 C77.88521121 231.74799994 74.25646606 221.06103705 70.625 210.375 C69.18102245 206.12629091 67.73700352 201.87759589 66.29296875 197.62890625 C65.93543518 196.57693054 65.57790161 195.52495483 65.20953369 194.44110107 C61.45571049 183.39703516 57.69707174 172.35461012 53.9375 161.3125 C53.60945374 160.34898621 53.28140747 159.38547241 52.94342041 158.39276123 C51.29030029 153.53737453 49.63711241 148.68201091 47.98388672 143.82666016 C44.98899874 135.03087134 41.99475742 126.2348624 39.00045776 117.43887329 C38.00172082 114.50505496 37.00294207 111.57125087 36.00415039 108.63745117 C32.98526376 99.76985539 29.96656292 90.90219661 26.94891357 82.03417969 C25.93089356 79.04260666 24.91271579 76.05108735 23.89453125 73.05957031 C22.5604866 69.13988996 21.22723577 65.21994087 19.89453125 61.29980469 C16.57530202 51.53995729 13.24119315 41.78551145 9.8828125 32.0390625 C8.90241507 29.18838776 7.92236682 26.33759324 6.94244385 23.48675537 C6.31893505 21.676153 5.69375726 19.86612443 5.0668335 18.05670166 C4.20720132 15.57562395 3.35303924 13.09272566 2.5 10.609375 C2.24461456 9.87739899 1.98922913 9.14542297 1.72610474 8.39126587 C0.7248576 5.46201664 0 3.11970236 0 0 Z " fill="#12332D" transform="translate(585,924)"/>
<path d="M0 0 C-2.93207623 12.86118862 -6.22421343 25.60747987 -9.640625 38.34765625 C-10.17321369 40.34112275 -10.70557851 42.33464907 -11.23773193 44.32823181 C-12.62298385 49.51537615 -14.01122685 54.70171514 -15.40014648 59.88787842 C-16.82329932 65.20405543 -18.24354987 70.52100765 -19.6640625 75.83789062 C-22.43990725 86.22601072 -25.2189202 96.61328029 -28 107 C-27.32163589 107.11500854 -26.64327179 107.23001709 -25.9443512 107.34851074 C-19.54847659 108.46688329 -13.2961862 109.84696923 -7.02734375 111.53125 C-6.13761368 111.76783325 -5.24788361 112.0044165 -4.33119202 112.24816895 C-2.47450706 112.74344014 -0.61842469 113.24097561 1.23706055 113.74072266 C4.08493063 114.50602776 6.93584708 115.25916326 9.78710938 116.01171875 C11.59915374 116.49666625 13.41100995 116.98231751 15.22265625 117.46875 C16.07465103 117.69276489 16.92664581 117.91677979 17.80445862 118.14758301 C18.58965378 118.36120483 19.37484894 118.57482666 20.18383789 118.79492188 C21.21994957 119.07233215 21.21994957 119.07233215 22.2769928 119.35534668 C24 120 24 120 26 122 C20.27390451 127.74938389 14.5450249 133.4959736 8.81268311 139.23912907 C6.15030636 141.90669882 3.48885711 144.57517976 0.82958984 147.24584961 C-1.74229913 149.82869589 -4.31670549 152.40900923 -6.89279175 154.98766899 C-7.86953656 155.96624512 -8.84540894 156.94569294 -9.82034302 157.92607307 C-18.41060929 166.56236129 -18.41060929 166.56236129 -22.75830078 170.25390625 C-28.63817384 175.30246107 -33.99972926 180.90750368 -39.45205307 186.40745354 C-41.52556724 188.49850582 -43.60273313 190.58586731 -45.68093872 192.67225647 C-51.58326851 198.59892831 -57.47976113 204.53138366 -63.37207031 210.46801758 C-66.98860375 214.1112482 -70.60992466 217.74966195 -74.23428726 221.38510323 C-75.61333917 222.77037651 -76.99048901 224.15754596 -78.36571884 225.54661369 C-80.27822998 227.47822396 -82.19671416 229.40370366 -84.11669922 231.32788086 C-84.68603683 231.90598007 -85.25537445 232.48407928 -85.84196472 233.07969666 C-89.77210071 237 -89.77210071 237 -92 237 C-89.06792377 224.13881138 -85.77578657 211.39252013 -82.359375 198.65234375 C-81.82678631 196.65887725 -81.29442149 194.66535093 -80.76226807 192.67176819 C-79.37701615 187.48462385 -77.98877315 182.29828486 -76.59985352 177.11212158 C-75.17670068 171.79594457 -73.75645013 166.47899235 -72.3359375 161.16210938 C-69.56009275 150.77398928 -66.7810798 140.38671971 -64 130 C-68.28727903 128.36227997 -72.51371391 126.75646688 -76.94726562 125.55786133 C-77.82757446 125.3178389 -78.7078833 125.07781647 -79.61486816 124.83052063 C-80.99660217 124.46001839 -80.99660217 124.46001839 -82.40625 124.08203125 C-83.85420959 123.68886971 -83.85420959 123.68886971 -85.3314209 123.2877655 C-88.38664981 122.45906701 -91.44328615 121.63570233 -94.5 120.8125 C-96.58342896 120.24839995 -98.66676331 119.68395032 -100.75 119.11914062 C-105.83224618 117.74204933 -110.91565572 116.36932337 -116 115 C-114.5323992 111.61241656 -112.64925912 109.40116618 -110.04443359 106.80151367 C-109.22953461 105.98353806 -108.41463562 105.16556244 -107.57504272 104.32279968 C-106.25012314 103.00865837 -106.25012314 103.00865837 -104.8984375 101.66796875 C-103.9880069 100.75799637 -103.07757629 99.84802399 -102.13955688 98.91047668 C-100.21086144 96.9833441 -98.27886 95.05961061 -96.34423828 93.13842773 C-93.88497649 90.69604759 -91.43223938 88.24724594 -88.98178673 85.796031 C-86.62345789 83.43804264 -84.26088365 81.08433226 -81.8984375 78.73046875 C-81.02730316 77.86044724 -80.15616882 76.99042572 -79.25863647 76.09403992 C-75.6824892 72.54525528 -72.11391742 69.04491284 -68.2734375 65.78222656 C-62.45396565 60.77158126 -57.13560973 55.22818829 -51.73314285 49.77774239 C-49.69323573 47.72029288 -47.64967359 45.66653812 -45.60507202 43.61375427 C-39.79832124 37.7826649 -33.99741297 31.94578761 -28.20068359 26.10473633 C-24.64250501 22.5198603 -21.07953892 18.93980165 -17.51353073 15.36271477 C-16.15680729 13.99977022 -14.80198593 12.63492959 -13.44908524 11.26819038 C-11.56770704 9.36771257 -9.68035663 7.47336708 -7.79150391 5.58032227 C-7.23151703 5.01157379 -6.67153015 4.44282532 -6.09457397 3.85684204 C-2.22789935 0 -2.22789935 0 0 0 Z " fill="#12332D" transform="translate(1111,994)"/>
</svg>
